<svg version="1.1" id="Layer_1" xmlns="http://www.w3.org/2000/svg" xmlns:xlink="http://www.w3.org/1999/xlink" x="0px" y="0px"
	 width="100%" viewBox="0 0 512 512" enable-background="new 0 0 512 512" xml:space="preserve">
<path fill="#006FCF" opacity="1.000000" stroke="none" 
	d="
M513.000000,432.000000 
	C513.000000,458.993103 513.000000,485.986206 513.000000,512.984497 
	C342.383850,512.989624 171.767715,512.989624 1.075781,512.989624 
	C1.075781,342.427490 1.075781,171.854965 1.075781,1.141211 
	C171.666580,1.141211 342.333282,1.141211 513.000000,1.141211 
	C513.000000,27.746405 513.000000,54.406219 512.531494,81.545761 
	C488.736786,82.026985 465.410339,82.076187 442.084625,81.969185 
	C439.192169,81.955925 437.677307,82.642067 436.704865,85.597809 
	C434.264709,93.014633 431.409515,100.295471 428.694763,107.621223 
	C426.470123,113.624466 424.208130,119.613861 421.658264,126.422256 
	C415.854523,111.011398 410.413422,96.563393 405.043274,82.303802 
	C371.553925,82.303802 338.462189,82.303802 304.922089,82.303802 
	C304.922089,95.764931 304.922089,108.958611 304.922089,122.152283 
	C303.436371,120.911201 302.669434,119.529816 302.012909,118.097794 
	C297.231689,107.668739 292.363312,97.277306 287.769531,86.766006 
	C286.279724,83.357071 284.590454,81.851845 280.485443,81.898903 
	C256.995392,82.168228 233.499557,82.146309 210.008652,81.917755 
	C205.982941,81.878586 204.323990,83.220108 202.755447,86.791740 
	C176.750443,146.006546 150.576096,205.146988 124.451843,264.309448 
	C123.813126,265.755951 123.314308,267.264191 122.474991,269.465576 
	C144.698441,269.465576 166.248093,269.465576 188.366180,269.465576 
	C188.366180,323.924652 188.366180,377.811768 188.366180,432.058075 
	C190.919449,432.058075 192.896088,432.058075 194.872726,432.058075 
	C253.022369,432.058075 311.171997,432.068756 369.321655,432.043488 
	C375.970032,432.040588 383.432251,433.676788 389.033875,431.199310 
	C394.450378,428.803772 397.956177,422.080444 402.290985,417.248871 
	C406.905029,412.106171 411.507080,406.952698 416.266785,401.633545 
	C424.381104,411.120117 431.962067,420.196625 439.845062,429.002808 
	C441.266907,430.591187 443.923431,431.910370 446.022034,431.928192 
	C468.346619,432.117737 490.673645,432.019257 513.000000,432.000000 
z"/>
<path fill="#FDFEFF" opacity="1.000000" stroke="none" 
	d="
M513.000000,431.531342 
	C490.673645,432.019257 468.346619,432.117737 446.022034,431.928192 
	C443.923431,431.910370 441.266907,430.591187 439.845062,429.002808 
	C431.962067,420.196625 424.381104,411.120117 416.266785,401.633545 
	C411.507080,406.952698 406.905029,412.106171 402.290985,417.248871 
	C397.956177,422.080444 394.450378,428.803772 389.033875,431.199310 
	C383.432251,433.676788 375.970032,432.040588 369.321655,432.043488 
	C311.171997,432.068756 253.022369,432.058075 194.872726,432.058075 
	C192.896088,432.058075 190.919449,432.058075 188.366180,432.058075 
	C188.366180,377.811768 188.366180,323.924652 188.366180,269.465576 
	C166.248093,269.465576 144.698441,269.465576 122.474991,269.465576 
	C123.314308,267.264191 123.813126,265.755951 124.451843,264.309448 
	C150.576096,205.146988 176.750443,146.006546 202.755447,86.791740 
	C204.323990,83.220108 205.982941,81.878586 210.008652,81.917755 
	C233.499557,82.146309 256.995392,82.168228 280.485443,81.898903 
	C284.590454,81.851845 286.279724,83.357071 287.769531,86.766006 
	C292.363312,97.277306 297.231689,107.668739 302.012909,118.097794 
	C302.669434,119.529816 303.436371,120.911201 304.922089,122.152283 
	C304.922089,108.958611 304.922089,95.764931 304.922089,82.303802 
	C338.462189,82.303802 371.553925,82.303802 405.043274,82.303802 
	C410.413422,96.563393 415.854523,111.011398 421.658264,126.422256 
	C424.208130,119.613861 426.470123,113.624466 428.694763,107.621223 
	C431.409515,100.295471 434.264709,93.014633 436.704865,85.597809 
	C437.677307,82.642067 439.192169,81.955925 442.084625,81.969185 
	C465.410339,82.076187 488.736786,82.026985 512.531494,82.012741 
	C513.000000,90.687561 513.000000,99.375130 512.561768,108.351257 
	C494.797211,108.605988 477.469238,108.691811 460.146027,108.444000 
	C456.382874,108.390175 454.614044,109.494637 453.286041,113.071014 
	C443.680786,138.938736 433.850037,164.722717 424.081329,190.529694 
	C423.467529,192.151199 422.775024,193.742905 421.792419,196.148285 
	C420.853119,193.768524 420.297424,192.399658 419.770477,191.019867 
	C409.806885,164.931900 399.797729,138.861115 389.950714,112.729195 
	C388.779877,109.622047 387.321106,108.404579 383.856201,108.447777 
	C367.530701,108.651314 351.201202,108.528198 334.873230,108.557159 
	C333.461090,108.559669 332.049438,108.821587 329.988403,109.028023 
	C329.988403,153.680679 329.988403,197.910965 329.988403,242.141251 
	C328.727081,241.113892 328.228088,240.070267 327.761932,239.012177 
	C309.261932,197.021057 290.710754,155.052277 272.366577,112.993156 
	C270.838226,109.488937 269.050140,108.388794 265.367828,108.454559 
	C253.042419,108.674690 240.708572,108.663460 228.382629,108.458603 
	C224.877029,108.400345 223.181351,109.507118 221.741989,112.786140 
	C203.098114,155.259140 184.279861,197.655579 165.512329,240.074326 
	C164.866577,241.533813 164.290680,243.024231 163.527969,244.874451 
	C177.029099,244.874451 189.830414,244.874451 202.940201,244.874451 
	C205.959869,237.387833 209.106506,229.884857 211.985809,222.280670 
	C212.950912,219.731827 214.195541,218.761536 217.027023,218.781052 
	C236.686386,218.916489 256.347748,218.931274 276.006744,218.771210 
	C279.113525,218.745926 280.289795,219.950058 281.299103,222.626236 
	C284.111389,230.083038 287.230011,237.424301 290.213562,244.776306 
	C315.163330,244.776306 339.922791,244.776306 365.112366,244.776306 
	C365.112366,210.030151 365.112366,175.532837 365.112366,141.035522 
	C366.545349,142.511108 367.302216,144.098053 367.917328,145.738159 
	C379.649689,177.021729 391.479279,208.269897 402.955017,239.647430 
	C404.574982,244.076782 406.652649,245.364456 411.136383,245.136154 
	C418.780762,244.746902 426.465668,244.846542 434.120453,245.114929 
	C437.364960,245.228683 438.749725,244.063873 439.836487,241.132278 
	C451.565765,209.492447 463.421722,177.899582 475.257202,146.299179 
	C475.915436,144.541702 476.698059,142.830811 477.422791,141.098236 
	C477.698059,141.165573 477.973358,141.232910 478.248657,141.300247 
	C478.248657,175.726898 478.248657,210.153549 478.248657,245.000000 
	C490.088501,245.000000 501.544250,245.000000 513.000000,245.000000 
	C513.000000,262.687561 513.000000,280.375122 512.674988,298.619934 
	C499.732697,311.704865 487.115417,324.232483 473.801208,337.452118 
	C487.204590,350.632904 500.102295,363.316467 513.000000,376.000000 
	C513.000000,394.354218 513.000000,412.708466 513.000000,431.531342 
M332.104889,405.770020 
	C343.434326,405.757935 354.779968,405.379700 366.086639,405.880829 
	C372.172943,406.150604 376.183044,404.164734 380.189117,399.671539 
	C391.692688,386.769226 403.709778,374.324768 416.016968,361.174805 
	C417.462799,362.811554 418.624756,364.186157 419.848724,365.503174 
	C429.489227,375.876404 439.645508,385.825012 448.611328,396.750977 
	C454.492310,403.917694 460.825165,406.636536 469.953186,405.920807 
	C480.293915,405.109985 490.747162,405.733704 502.467224,405.733704 
	C480.608307,382.326904 459.670197,359.906097 438.625610,337.371338 
	C459.805817,314.869690 480.593781,292.784729 502.316071,269.707153 
	C487.994690,269.707153 475.208557,269.801758 462.425598,269.641541 
	C459.169922,269.600769 456.893005,270.524231 454.664917,272.974030 
	C444.240723,284.435425 433.617279,295.715698 423.059875,307.055878 
	C421.040771,309.224670 418.998474,311.371918 416.613708,313.904083 
	C415.210449,312.296570 414.158478,311.027039 413.039459,309.819611 
	C401.488129,297.355591 389.975189,284.855042 378.298492,272.509460 
	C376.984009,271.119659 374.736145,269.852539 372.905945,269.831238 
	C358.748627,269.666473 344.587524,269.822479 330.491302,269.907593 
	C330.491302,269.907593 330.552704,269.874542 329.552612,269.749786 
	C291.979919,269.749786 254.407227,269.749786 216.672272,269.749786 
	C216.672272,315.292725 216.672272,360.291626 216.672272,405.733795 
	C220.004303,405.733795 222.968948,405.729095 225.933563,405.734497 
	C260.555603,405.797699 295.177643,405.862488 330.502380,405.936523 
	C330.736603,405.933533 330.970856,405.930573 332.104889,405.770020 
z"/>
<path fill="#0270CF" opacity="1.000000" stroke="none" 
	d="
M513.000000,244.531342 
	C501.544250,245.000000 490.088501,245.000000 478.248657,245.000000 
	C478.248657,210.153549 478.248657,175.726898 478.248657,141.300247 
	C477.973358,141.232910 477.698059,141.165573 477.422791,141.098236 
	C476.698059,142.830811 475.915436,144.541702 475.257202,146.299179 
	C463.421722,177.899582 451.565765,209.492447 439.836487,241.132278 
	C438.749725,244.063873 437.364960,245.228683 434.120453,245.114929 
	C426.465668,244.846542 418.780762,244.746902 411.136383,245.136154 
	C406.652649,245.364456 404.574982,244.076782 402.955017,239.647430 
	C391.479279,208.269897 379.649689,177.021729 367.917328,145.738159 
	C367.302216,144.098053 366.545349,142.511108 365.112366,141.035522 
	C365.112366,175.532837 365.112366,210.030151 365.112366,244.776306 
	C339.922791,244.776306 315.163330,244.776306 290.213562,244.776306 
	C287.230011,237.424301 284.111389,230.083038 281.299103,222.626236 
	C280.289795,219.950058 279.113525,218.745926 276.006744,218.771210 
	C256.347748,218.931274 236.686386,218.916489 217.027023,218.781052 
	C214.195541,218.761536 212.950912,219.731827 211.985809,222.280670 
	C209.106506,229.884857 205.959869,237.387833 202.940201,244.874451 
	C189.830414,244.874451 177.029099,244.874451 163.527969,244.874451 
	C164.290680,243.024231 164.866577,241.533813 165.512329,240.074326 
	C184.279861,197.655579 203.098114,155.259140 221.741989,112.786140 
	C223.181351,109.507118 224.877029,108.400345 228.382629,108.458603 
	C240.708572,108.663460 253.042419,108.674690 265.367828,108.454559 
	C269.050140,108.388794 270.838226,109.488937 272.366577,112.993156 
	C290.710754,155.052277 309.261932,197.021057 327.761932,239.012177 
	C328.228088,240.070267 328.727081,241.113892 329.988403,242.141251 
	C329.988403,197.910965 329.988403,153.680679 329.988403,109.028023 
	C332.049438,108.821587 333.461090,108.559669 334.873230,108.557159 
	C351.201202,108.528198 367.530701,108.651314 383.856201,108.447777 
	C387.321106,108.404579 388.779877,109.622047 389.950714,112.729195 
	C399.797729,138.861115 409.806885,164.931900 419.770477,191.019867 
	C420.297424,192.399658 420.853119,193.768524 421.792419,196.148285 
	C422.775024,193.742905 423.467529,192.151199 424.081329,190.529694 
	C433.850037,164.722717 443.680786,138.938736 453.286041,113.071014 
	C454.614044,109.494637 456.382874,108.390175 460.146027,108.444000 
	C477.469238,108.691811 494.797211,108.605988 512.561768,108.819916 
	C513.000000,154.020889 513.000000,199.041794 513.000000,244.531342 
M235.211716,165.710358 
	C232.113739,173.347504 229.015762,180.984650 225.841187,188.810638 
	C239.838974,188.810638 253.329178,188.810638 267.370789,188.810638 
	C260.396606,171.753952 253.624344,155.191101 246.561081,137.916565 
	C242.660629,147.531937 239.111786,156.280533 235.211716,165.710358 
z"/>
<path fill="#0270CF" opacity="1.000000" stroke="none" 
	d="
M513.000000,375.531342 
	C500.102295,363.316467 487.204590,350.632904 473.801208,337.452118 
	C487.115417,324.232483 499.732697,311.704865 512.674988,299.088623 
	C513.000000,324.354218 513.000000,349.708466 513.000000,375.531342 
z"/>
<path fill="#0270CF" opacity="1.000000" stroke="none" 
	d="
M329.799683,405.926819 
	C295.177643,405.862488 260.555603,405.797699 225.933563,405.734497 
	C222.968948,405.729095 220.004303,405.733795 216.672272,405.733795 
	C216.672272,360.291626 216.672272,315.292725 216.672272,269.749786 
	C254.407227,269.749786 291.979919,269.749786 329.967590,270.285522 
	C330.382599,280.092560 330.382599,289.363800 330.382599,299.146057 
	C303.708801,299.146057 277.653748,299.146057 251.476105,299.146057 
	C251.476105,307.375824 251.476105,315.082275 251.476105,323.226196 
	C277.408295,323.226196 302.980621,323.226196 328.608337,323.226196 
	C328.608337,333.081909 328.608337,342.489960 328.608337,352.417297 
	C302.739868,352.417297 277.166840,352.417297 251.391113,352.417297 
	C251.391113,360.505127 251.391113,368.067230 251.391113,376.134460 
	C277.724915,376.134460 303.786621,376.134460 329.799683,376.134460 
	C329.799683,386.403473 329.799683,396.165131 329.799683,405.926819 
z"/>
<path fill="#0270CF" opacity="1.000000" stroke="none" 
	d="
M330.427612,269.879150 
	C344.587524,269.822479 358.748627,269.666473 372.905945,269.831238 
	C374.736145,269.852539 376.984009,271.119659 378.298492,272.509460 
	C389.975189,284.855042 401.488129,297.355591 413.039459,309.819611 
	C414.158478,311.027039 415.210449,312.296570 416.613708,313.904083 
	C418.998474,311.371918 421.040771,309.224670 423.059875,307.055878 
	C433.617279,295.715698 444.240723,284.435425 454.664917,272.974030 
	C456.893005,270.524231 459.169922,269.600769 462.425598,269.641541 
	C475.208557,269.801758 487.994690,269.707153 502.316071,269.707153 
	C480.593781,292.784729 459.805817,314.869690 438.625610,337.371338 
	C459.670197,359.906097 480.608307,382.326904 502.467224,405.733704 
	C490.747162,405.733704 480.293915,405.109985 469.953186,405.920807 
	C460.825165,406.636536 454.492310,403.917694 448.611328,396.750977 
	C439.645508,385.825012 429.489227,375.876404 419.848724,365.503174 
	C418.624756,364.186157 417.462799,362.811554 416.016968,361.174805 
	C403.709778,374.324768 391.692688,386.769226 380.189117,399.671539 
	C376.183044,404.164734 372.172943,406.150604 366.086639,405.880829 
	C354.779968,405.379700 343.434326,405.757935 331.640320,405.514221 
	C332.345764,403.864471 333.451935,402.410522 334.695465,401.085510 
	C353.155762,381.415497 371.636749,361.764893 390.103180,342.100616 
	C391.412231,340.706696 392.646088,339.242188 393.988861,337.727051 
	C372.533936,314.825165 351.480774,292.352173 330.427612,269.879150 
z"/>
<path fill="#FAFCFE" opacity="1.000000" stroke="none" 
	d="
M330.459473,269.893372 
	C351.480774,292.352173 372.533936,314.825165 393.988861,337.727051 
	C392.646088,339.242188 391.412231,340.706696 390.103180,342.100616 
	C371.636749,361.764893 353.155762,381.415497 334.695465,401.085510 
	C333.451935,402.410522 332.345764,403.864471 331.190399,405.593048 
	C330.970856,405.930573 330.736603,405.933533 330.151031,405.931671 
	C329.799683,396.165131 329.799683,386.403473 329.799683,376.134460 
	C303.786621,376.134460 277.724915,376.134460 251.391113,376.134460 
	C251.391113,368.067230 251.391113,360.505127 251.391113,352.417297 
	C277.166840,352.417297 302.739868,352.417297 328.608337,352.417297 
	C328.608337,342.489960 328.608337,333.081909 328.608337,323.226196 
	C302.980621,323.226196 277.408295,323.226196 251.476105,323.226196 
	C251.476105,315.082275 251.476105,307.375824 251.476105,299.146057 
	C277.653748,299.146057 303.708801,299.146057 330.382599,299.146057 
	C330.382599,289.363800 330.382599,280.092560 330.467651,270.347900 
	C330.552704,269.874542 330.491302,269.907593 330.459473,269.893372 
z"/>
<path fill="#FCFDFE" opacity="1.000000" stroke="none" 
	d="
M235.387329,165.369736 
	C239.111786,156.280533 242.660629,147.531937 246.561081,137.916565 
	C253.624344,155.191101 260.396606,171.753952 267.370789,188.810638 
	C253.329178,188.810638 239.838974,188.810638 225.841187,188.810638 
	C229.015762,180.984650 232.113739,173.347504 235.387329,165.369736 
z"/>
</svg>