<svg version="1.1" id="Layer_1" xmlns="http://www.w3.org/2000/svg" xmlns:xlink="http://www.w3.org/1999/xlink" x="0px" y="0px"
	 width="100%" viewBox="0 0 225 225" enable-background="new 0 0 225 225" xml:space="preserve">
<path fill="#FFFDFD" opacity="1.000000" stroke="none" 
	d="
M132.000000,226.000000 
	C88.000000,226.000000 44.500004,226.000000 1.000006,226.000000 
	C1.000004,151.000000 1.000004,76.000015 1.000002,1.000016 
	C75.999992,1.000011 150.999985,1.000011 225.999969,1.000005 
	C225.999985,75.999985 225.999985,150.999969 226.000000,225.999969 
	C194.833328,226.000000 163.666672,226.000000 132.000000,226.000000 
M211.617950,63.370544 
	C208.722656,60.417713 206.157990,62.486954 203.583023,63.928925 
	C174.496460,80.217216 145.425568,96.533585 116.299324,112.750549 
	C115.051216,113.445473 112.993637,113.903763 111.843842,113.356773 
	C105.313652,110.250092 98.837456,106.993767 92.545502,103.430565 
	C81.796585,97.343330 71.245239,90.908043 60.522396,84.773682 
	C49.714802,78.590813 38.799458,72.596298 27.468058,66.260216 
	C28.512144,65.535736 28.993477,65.137329 29.530254,64.838524 
	C56.410530,49.875256 83.339119,34.997589 110.121346,19.860943 
	C113.240891,18.097853 115.243317,19.030317 117.737694,20.428162 
	C138.334488,31.970552 158.984268,43.418907 179.536377,55.040089 
	C183.141861,57.078800 186.269058,56.557186 188.051849,53.360615 
	C189.996719,49.873512 186.516495,48.598698 184.078247,47.295780 
	C172.369064,41.038795 160.559631,34.963573 148.951508,28.525042 
	C137.928848,22.411243 127.053207,16.024225 116.251839,9.526429 
	C114.030746,8.190283 112.648598,8.427614 110.584488,9.631193 
	C99.582291,16.046568 88.533821,22.387810 77.393036,28.559153 
	C57.545803,39.553352 37.608120,50.384148 17.738050,61.337315 
	C13.041734,63.926113 13.057313,67.508781 17.731329,70.109421 
	C48.386078,87.165840 79.084938,104.143364 109.681198,121.303886 
	C112.546799,122.911118 114.537865,122.868805 117.364182,121.280800 
	C141.423706,107.762581 165.581772,94.419693 189.716858,81.036072 
	C194.106033,78.602142 198.525024,76.221954 203.620850,73.439934 
	C203.620850,79.946503 203.403839,85.435860 203.701126,90.897224 
	C203.883392,94.245819 202.566711,95.923637 199.745422,97.487793 
	C173.664352,111.947571 147.536865,126.333260 121.732201,141.274734 
	C115.705345,144.764404 111.021576,145.578705 105.341721,141.262650 
	C102.601074,139.180038 98.897301,138.419922 95.855492,136.668671 
	C85.126183,130.491516 74.606590,123.943962 63.798290,117.911644 
	C49.504948,109.934258 35.009567,102.319138 20.612494,94.527130 
	C17.137144,92.646187 14.661321,93.725090 14.649058,97.485695 
	C14.612676,108.644150 14.768938,119.803230 14.704096,131.519257 
	C14.814118,131.676575 14.924142,131.833893 15.237624,132.656265 
	C46.946510,150.211197 78.670082,167.739746 110.333710,185.375931 
	C112.628555,186.654129 114.242378,186.765396 116.618797,185.428711 
	C136.039093,174.505203 155.558334,163.757538 175.054443,152.968948 
	C184.299225,147.853119 193.559097,142.764526 203.620850,137.217758 
	C203.620850,143.654617 203.386566,149.132874 203.707016,154.578461 
	C203.905365,157.949020 202.567459,159.665283 199.770523,161.196365 
	C188.167938,167.547745 176.674942,174.099152 165.133743,180.562912 
	C149.208817,189.481827 133.242386,198.327637 117.380692,207.357513 
	C114.662010,208.905228 112.570763,209.107346 109.769691,207.475082 
	C99.053734,201.230576 88.211906,195.199677 77.362885,189.186783 
	C70.456711,185.359161 63.389767,181.819733 56.510830,177.945267 
	C44.897610,171.404312 33.431786,164.599808 21.768421,158.151306 
	C19.505674,156.900269 16.190022,156.447159 14.792867,159.502716 
	C13.585668,162.142807 14.784578,164.395706 17.656015,165.974136 
	C48.678448,183.027267 79.665733,200.145187 110.562790,217.423950 
	C113.021072,218.798691 114.479317,218.508118 116.696342,217.261414 
	C133.495300,207.814758 150.399673,198.555893 167.231689,189.167679 
	C181.878876,180.998108 196.474472,172.736038 211.852310,163.956909 
	C211.970078,151.944275 212.101730,139.931702 212.157288,127.918777 
	C212.159637,127.413429 211.454056,126.904808 210.631210,125.877014 
	C208.822418,125.993797 206.715195,125.546936 205.254150,126.320503 
	C196.917480,130.734482 188.733810,135.437469 180.499878,140.045380 
	C159.325790,151.894928 138.171783,163.780823 116.938560,175.523453 
	C115.423088,176.361526 112.884171,176.995132 111.574020,176.301575 
	C99.568298,169.946045 87.710236,163.309753 75.847343,156.686829 
	C65.868172,151.115585 55.941238,145.450821 45.988674,139.831894 
	C39.064575,135.922745 32.119602,132.049927 25.232933,128.075989 
	C24.459152,127.629486 23.497448,126.640633 23.481453,125.885109 
	C23.343222,119.355484 23.401896,112.821686 23.401896,105.681198 
	C25.622585,106.770584 26.971924,107.361702 28.255026,108.072411 
	C55.300320,123.052673 82.355103,138.016037 109.352318,153.082550 
	C112.183388,154.662491 114.386963,154.967834 117.444031,153.245056 
	C140.604950,140.192932 163.920624,127.415794 187.126266,114.442421 
	C195.478195,109.773193 203.660736,104.800964 212.210831,99.073570 
	C212.101410,87.399597 211.991974,75.725616 211.617950,63.370544 
z"/>
<path fill="#FF3923" opacity="1.000000" stroke="none" 
	d="
M211.092865,164.514847 
	C196.474472,172.736038 181.878876,180.998108 167.231689,189.167679 
	C150.399673,198.555893 133.495300,207.814758 116.696342,217.261414 
	C114.479317,218.508118 113.021072,218.798691 110.562790,217.423950 
	C79.665733,200.145187 48.678448,183.027267 17.656015,165.974136 
	C14.784578,164.395706 13.585668,162.142807 14.792867,159.502716 
	C16.190022,156.447159 19.505674,156.900269 21.768421,158.151306 
	C33.431786,164.599808 44.897610,171.404312 56.510830,177.945267 
	C63.389767,181.819733 70.456711,185.359161 77.362885,189.186783 
	C88.211906,195.199677 99.053734,201.230576 109.769691,207.475082 
	C112.570763,209.107346 114.662010,208.905228 117.380692,207.357513 
	C133.242386,198.327637 149.208817,189.481827 165.133743,180.562912 
	C176.674942,174.099152 188.167938,167.547745 199.770523,161.196365 
	C202.567459,159.665283 203.905365,157.949020 203.707016,154.578461 
	C203.386566,149.132874 203.620850,143.654617 203.620850,137.217758 
	C193.559097,142.764526 184.299225,147.853119 175.054443,152.968948 
	C155.558334,163.757538 136.039093,174.505203 116.618797,185.428711 
	C114.242378,186.765396 112.628555,186.654129 110.333710,185.375931 
	C78.670082,167.739746 46.946510,150.211197 15.299582,132.211533 
	C15.190987,131.498550 15.020435,131.230316 14.849886,130.962067 
	C14.768938,119.803230 14.612676,108.644150 14.649058,97.485695 
	C14.661321,93.725090 17.137144,92.646187 20.612494,94.527130 
	C35.009567,102.319138 49.504948,109.934258 63.798290,117.911644 
	C74.606590,123.943962 85.126183,130.491516 95.855492,136.668671 
	C98.897301,138.419922 102.601074,139.180038 105.341721,141.262650 
	C111.021576,145.578705 115.705345,144.764404 121.732201,141.274734 
	C147.536865,126.333260 173.664352,111.947571 199.745422,97.487793 
	C202.566711,95.923637 203.883392,94.245819 203.701126,90.897224 
	C203.403839,85.435860 203.620850,79.946503 203.620850,73.439934 
	C198.525024,76.221954 194.106033,78.602142 189.716858,81.036072 
	C165.581772,94.419693 141.423706,107.762581 117.364182,121.280800 
	C114.537865,122.868805 112.546799,122.911118 109.681198,121.303886 
	C79.084938,104.143364 48.386078,87.165840 17.731329,70.109421 
	C13.057313,67.508781 13.041734,63.926113 17.738050,61.337315 
	C37.608120,50.384148 57.545803,39.553352 77.393036,28.559153 
	C88.533821,22.387810 99.582291,16.046568 110.584488,9.631193 
	C112.648598,8.427614 114.030746,8.190283 116.251839,9.526429 
	C127.053207,16.024225 137.928848,22.411243 148.951508,28.525042 
	C160.559631,34.963573 172.369064,41.038795 184.078247,47.295780 
	C186.516495,48.598698 189.996719,49.873512 188.051849,53.360615 
	C186.269058,56.557186 183.141861,57.078800 179.536377,55.040089 
	C158.984268,43.418907 138.334488,31.970552 117.737694,20.428162 
	C115.243317,19.030317 113.240891,18.097853 110.121346,19.860943 
	C83.339119,34.997589 56.410530,49.875256 29.530254,64.838524 
	C28.993477,65.137329 28.512144,65.535736 27.468058,66.260216 
	C38.799458,72.596298 49.714802,78.590813 60.522396,84.773682 
	C71.245239,90.908043 81.796585,97.343330 92.545502,103.430565 
	C98.837456,106.993767 105.313652,110.250092 111.843842,113.356773 
	C112.993637,113.903763 115.051216,113.445473 116.299324,112.750549 
	C145.425568,96.533585 174.496460,80.217216 203.583023,63.928925 
	C206.157990,62.486954 208.722656,60.417713 211.471832,64.014404 
	C211.215942,75.036705 211.070084,85.415039 211.039276,95.793709 
	C211.035141,97.183929 211.612503,98.575882 211.920593,99.967026 
	C203.660736,104.800964 195.478195,109.773193 187.126266,114.442421 
	C163.920624,127.415794 140.604950,140.192932 117.444031,153.245056 
	C114.386963,154.967834 112.183388,154.662491 109.352318,153.082550 
	C82.355103,138.016037 55.300320,123.052673 28.255026,108.072411 
	C26.971924,107.361702 25.622585,106.770584 23.401896,105.681198 
	C23.401896,112.821686 23.343222,119.355484 23.481453,125.885109 
	C23.497448,126.640633 24.459152,127.629486 25.232933,128.075989 
	C32.119602,132.049927 39.064575,135.922745 45.988674,139.831894 
	C55.941238,145.450821 65.868172,151.115585 75.847343,156.686829 
	C87.710236,163.309753 99.568298,169.946045 111.574020,176.301575 
	C112.884171,176.995132 115.423088,176.361526 116.938560,175.523453 
	C138.171783,163.780823 159.325790,151.894928 180.499878,140.045380 
	C188.733810,135.437469 196.917480,130.734482 205.254150,126.320503 
	C206.715195,125.546936 208.822418,125.993797 210.834534,126.649292 
	C211.056183,139.785995 211.074524,152.150421 211.092865,164.514847 
z"/>
<path fill="#FF2600" opacity="1.000000" stroke="none" 
	d="
M211.472580,164.235870 
	C211.074524,152.150421 211.056183,139.785995 211.058060,126.909645 
	C211.454056,126.904808 212.159637,127.413429 212.157288,127.918777 
	C212.101730,139.931702 211.970078,151.944275 211.472580,164.235870 
z"/>
<path fill="#FF2700" opacity="1.000000" stroke="none" 
	d="
M212.065704,99.520294 
	C211.612503,98.575882 211.035141,97.183929 211.039276,95.793709 
	C211.070084,85.415039 211.215942,75.036705 211.604126,64.354958 
	C211.991974,75.725616 212.101410,87.399597 212.065704,99.520294 
z"/>
<path fill="#FE2A0E" opacity="1.000000" stroke="none" 
	d="
M14.776990,131.240662 
	C15.020435,131.230316 15.190987,131.498550 15.197851,131.879013 
	C14.924142,131.833893 14.814118,131.676575 14.776990,131.240662 
z"/>
</svg>