<svg version="1.1" id="Layer_1" xmlns="http://www.w3.org/2000/svg" xmlns:xlink="http://www.w3.org/1999/xlink" x="0px" y="0px"
	 width="100%" viewBox="0 0 1705 1210" enable-background="new 0 0 1705 1210" xml:space="preserve">
<path fill="#000000" opacity="1.000000" stroke="none" 
	d="
M1090.000000,1211.000000 
	C728.500000,1211.000000 367.000000,1211.001221 5.500005,1210.958740 
	C3.999974,1210.958618 2.500009,1210.333252 1.468662,1209.500000 
	C16.095470,1209.000000 30.253628,1209.004639 44.411781,1208.998169 
	C51.802097,1208.994873 51.992119,1208.823120 51.994938,1201.427246 
	C52.006432,1171.278687 52.109207,1141.129517 51.891075,1110.982422 
	C51.855488,1106.064453 53.390774,1104.850708 58.120258,1104.898071 
	C80.771011,1105.125366 103.426048,1104.905029 126.077721,1105.080688 
	C130.498978,1105.115112 132.721390,1103.433838 134.088943,1099.366089 
	C137.681091,1088.681030 141.488586,1078.066650 145.340607,1067.471558 
	C147.936584,1060.331055 147.104935,1059.008179 139.406982,1059.004761 
	C112.423210,1058.992676 85.438690,1058.897339 58.456379,1059.095825 
	C53.673542,1059.130981 51.743752,1058.220337 51.863949,1052.852051 
	C52.236721,1036.203735 51.996895,1019.541809 52.001667,1002.885132 
	C52.003635,996.014221 52.011578,996.002686 58.714905,996.001892 
	C94.360130,995.997620 130.005371,995.982971 165.650543,996.028320 
	C168.789413,996.032349 171.528458,996.014832 172.834854,992.303528 
	C176.742737,981.201416 180.920898,970.194458 184.826492,959.091553 
	C187.272095,952.139038 186.348083,951.003357 178.892990,951.002747 
	C119.595329,950.997986 60.297665,951.000061 1.000000,951.000000 
	C1.000000,634.407898 1.000000,317.815857 1.000000,1.000000 
	C267.029327,1.000000 533.058716,1.000000 799.809692,1.382941 
	C799.349426,2.176888 798.191040,2.851137 796.982361,2.958217 
	C784.869873,4.031292 772.680664,4.506936 760.647766,6.142092 
	C744.842224,8.289910 729.141785,11.237781 713.425232,14.007075 
	C685.268494,18.968369 657.517334,25.712988 630.484070,34.983467 
	C609.041504,42.336723 587.558960,49.827572 566.821045,58.915985 
	C541.401794,70.056000 516.731689,82.907280 491.758484,95.061409 
	C487.610992,97.079918 485.508728,99.929802 485.846039,105.169151 
	C486.655029,117.735077 486.403961,130.366318 487.073425,142.944977 
	C487.728363,155.250000 488.567200,167.575668 490.090668,179.796875 
	C492.370239,198.083618 494.451935,216.467102 498.194061,234.481995 
	C503.368195,259.390656 509.369904,284.171967 516.177368,308.685669 
	C525.079041,340.740387 537.121765,371.745392 551.083130,401.939575 
	C558.250793,417.441101 565.877380,432.767487 574.082092,447.742615 
	C583.365601,464.686890 592.776733,481.651947 603.497986,497.695343 
	C617.514954,518.670471 632.355591,539.150146 647.810974,559.091797 
	C660.571045,575.555786 673.885620,591.769958 688.489807,606.580994 
	C708.927490,627.308105 730.648438,646.784912 752.125183,666.463928 
	C759.329224,673.064941 767.439453,678.682678 775.212036,684.650024 
	C776.108765,685.338501 778.200684,685.987305 778.523621,685.611267 
	C779.371460,684.624084 780.142212,682.923157 779.871948,681.754456 
	C779.258484,679.101868 777.889343,676.635315 777.023193,674.028015 
	C768.652405,648.829224 759.464539,623.859436 752.246094,598.333374 
	C746.250244,577.130249 742.201782,555.342163 738.017273,533.672913 
	C735.051270,518.313782 733.009277,502.756073 731.104614,487.219604 
	C729.884033,477.262848 729.796875,467.171783 728.920105,457.165588 
	C728.626465,453.814362 728.047791,450.241180 726.551270,447.303375 
	C724.578247,443.430298 721.375366,440.206879 719.043884,436.489258 
	C708.356262,419.447327 697.788208,402.330414 686.808044,384.645874 
	C699.623108,379.475586 711.420166,374.982117 722.938171,369.861145 
	C725.466064,368.737244 728.419739,365.569122 728.757751,363.021362 
	C730.590454,349.208069 731.395874,335.261566 733.073669,321.423798 
	C734.761902,307.499237 736.557495,293.551514 739.219421,279.790649 
	C742.236511,264.193878 746.302612,248.801147 749.808594,233.296204 
	C750.181458,231.647293 749.858765,229.841110 749.858765,227.345596 
	C710.845337,234.437607 674.422241,247.233871 637.569519,263.171906 
	C631.656067,233.871872 625.984375,205.769730 620.351807,177.861206 
	C622.530701,176.978775 623.708496,176.472870 624.906616,176.021057 
	C637.031189,171.448929 648.954041,166.205704 661.332397,162.473740 
	C681.647644,156.348831 702.129761,150.653473 722.786926,145.826843 
	C738.921265,142.056976 755.363708,139.401047 771.796448,137.199905 
	C779.870789,136.118378 784.213623,132.677811 787.520813,125.302574 
	C795.233215,108.103516 803.164795,90.917282 812.391296,74.503685 
	C824.644592,52.705704 838.264832,31.678082 851.158875,10.235961 
	C852.858582,7.409466 853.739685,4.090733 855.000000,0.999994 
	C1138.609619,1.000000 1422.219116,1.000000 1706.000000,1.000000 
	C1706.000000,399.362701 1706.000000,797.725403 1705.634766,1196.561523 
	C1704.482910,1196.053833 1703.384155,1195.191406 1702.959351,1194.072998 
	C1699.955933,1186.168457 1696.794189,1178.303589 1694.287598,1170.238159 
	C1692.649536,1164.966675 1689.964233,1162.850830 1684.285767,1162.890869 
	C1652.300171,1163.116455 1620.311768,1162.934937 1588.325195,1163.077881 
	C1584.212524,1163.096313 1582.861694,1161.896606 1582.916992,1157.720093 
	C1583.126343,1141.895874 1583.000122,1126.067261 1583.000122,1110.240234 
	C1582.999756,1059.593750 1583.005005,1008.947388 1582.993408,958.300964 
	C1582.991699,951.255615 1582.714233,951.007385 1575.636963,951.002502 
	C1563.308594,950.993896 1550.980103,950.988770 1538.651733,951.004883 
	C1532.064697,951.013550 1532.004395,951.069641 1532.003906,957.756348 
	C1531.997803,1039.223755 1531.998047,1120.691162 1532.003540,1202.158569 
	C1532.004028,1208.978638 1532.027588,1208.996338 1539.066772,1208.997070 
	C1594.711182,1209.002075 1650.355591,1209.000000 1706.000000,1209.000000 
	C1705.667358,1209.666626 1705.453491,1210.783936 1704.978271,1210.909180 
	C1703.888062,1211.196533 1702.670532,1211.000000 1701.504639,1211.000000 
	C1512.307007,1211.000000 1323.109497,1211.000000 1133.490723,1210.619751 
	C1134.075806,1209.812256 1135.046509,1209.243774 1136.093872,1208.978882 
	C1155.330811,1204.112305 1172.159302,1195.373169 1185.499512,1180.158691 
	C1199.391357,1164.314941 1206.538940,1145.672485 1206.773804,1125.148560 
	C1207.414551,1069.156738 1206.965454,1013.152710 1207.049927,957.153687 
	C1207.057129,952.369019 1205.240723,950.801575 1200.482544,950.908020 
	C1188.155640,951.183777 1175.818359,950.995605 1163.485229,951.001648 
	C1156.013428,951.005310 1156.002319,951.012878 1156.001831,958.427551 
	C1155.998413,1011.093445 1156.019043,1063.759277 1155.960083,1116.425171 
	C1155.955811,1120.218628 1155.534302,1124.031250 1155.048218,1127.801758 
	C1151.249634,1157.262817 1126.720459,1169.551392 1101.197998,1164.448364 
	C1080.429932,1160.296143 1068.006714,1143.949097 1068.000610,1122.572144 
	C1067.997437,1111.739014 1068.000122,1100.905762 1068.000000,1090.072632 
	C1067.999878,1046.406616 1068.007324,1002.740540 1067.991699,959.074524 
	C1067.989136,951.870605 1067.098389,951.008301 1059.989014,951.002686 
	C1047.989136,950.993103 1035.989380,950.997009 1023.989502,951.001099 
	C1016.018250,951.003845 1016.003113,951.009033 1016.002441,959.179382 
	C1015.997864,1012.678650 1015.968689,1066.177856 1016.048889,1119.677002 
	C1016.056824,1124.969849 1016.258301,1130.350098 1017.197632,1135.539795 
	C1023.900391,1172.570557 1045.460693,1196.412231 1081.445190,1207.336182 
	C1084.395630,1208.232056 1087.152954,1209.763794 1090.000000,1211.000000 
M885.042847,1015.754456 
	C887.082458,1021.835999 889.122131,1027.917480 891.098450,1034.838013 
	C891.721008,1040.089966 892.923279,1045.347900 892.867554,1050.592651 
	C892.600891,1075.682739 894.482239,1100.830933 890.968872,1125.843872 
	C887.762817,1148.669312 871.445496,1162.993408 848.489990,1162.999512 
	C837.158142,1163.002563 825.826355,1163.006348 814.494507,1162.997437 
	C808.016418,1162.992310 808.002991,1162.980957 808.002258,1156.388428 
	C807.997742,1115.393799 808.005432,1074.399292 807.994019,1033.404663 
	C807.992126,1026.582397 807.406128,1026.015015 800.501465,1026.005005 
	C788.336426,1025.987549 776.171326,1025.993164 764.006287,1026.002686 
	C756.901855,1026.008179 756.010193,1026.871582 756.008423,1034.077637 
	C755.994568,1089.903687 755.996460,1145.729614 756.005615,1201.555664 
	C756.006714,1208.419312 756.582520,1208.991455 763.458801,1208.994385 
	C792.621643,1209.007080 821.785522,1209.140259 850.946533,1208.907593 
	C858.867371,1208.844482 866.931396,1208.410767 874.668640,1206.851807 
	C905.643860,1200.610840 927.432312,1183.170288 938.122070,1152.919922 
	C944.364990,1135.253296 944.469910,1116.718506 944.835449,1098.376709 
	C945.229553,1078.599365 944.927734,1058.761230 943.763000,1039.018433 
	C943.128296,1028.259888 940.074951,1017.643921 937.982056,1006.393005 
	C937.686340,1005.910522 937.390686,1005.428101 937.013794,1004.200256 
	C932.111267,990.857178 924.301147,979.693115 913.234253,970.589417 
	C898.008057,958.064392 880.328735,951.614197 861.087341,951.220947 
	C824.146912,950.466187 787.180176,950.994202 750.224304,951.007690 
	C744.289673,951.009888 743.062622,952.442566 744.218872,958.146973 
	C746.386902,968.843811 748.988708,979.467834 750.702576,990.234802 
	C751.465088,995.025391 753.415100,996.105347 757.834290,996.078979 
	C784.468140,995.919678 811.104980,995.845947 837.737427,996.096252 
	C845.479736,996.168945 853.211060,997.397522 861.449829,998.604126 
	C867.286926,1001.772095 873.124084,1004.940002 879.291260,1008.671448 
	C881.157349,1010.794067 883.023438,1012.916626 885.042847,1015.754456 
M881.494812,720.003479 
	C885.191406,717.640320 889.033081,715.474609 892.560181,712.880920 
	C910.679749,699.557007 929.032715,686.521667 946.687622,672.603516 
	C961.251099,661.122498 975.518799,649.140747 988.914978,636.332336 
	C1012.356567,613.919250 1035.382935,591.015076 1055.220581,565.220520 
	C1068.338013,548.164185 1081.793335,531.307617 1093.871948,513.529114 
	C1106.365234,495.140076 1118.323730,476.251221 1128.804321,456.665009 
	C1142.671021,430.750427 1155.785156,404.343323 1167.538818,377.412994 
	C1179.585938,349.810974 1188.985962,321.094849 1196.473633,291.873932 
	C1201.425903,272.547333 1206.140503,253.115097 1209.785400,233.511490 
	C1213.035400,216.031982 1214.891724,198.277969 1216.949219,180.596924 
	C1218.618164,166.254227 1220.082153,151.862442 1220.870728,137.450485 
	C1221.507202,125.819870 1221.135986,114.123428 1220.859985,102.464523 
	C1220.816162,100.612747 1219.371460,98.049660 1217.799316,97.103264 
	C1209.586914,92.159523 1201.357178,87.137939 1192.702881,83.056366 
	C1171.260864,72.943970 1149.755615,62.928974 1127.963257,53.605076 
	C1095.267212,39.616024 1061.343384,29.190266 1026.745850,21.076210 
	C1009.202271,16.961756 991.511169,13.417057 973.788452,10.147714 
	C963.357727,8.223553 952.733032,7.353986 942.197998,5.991140 
	C934.744446,5.026925 927.316101,3.549963 919.836182,3.222558 
	C915.052307,3.013164 909.355042,0.675100 905.550293,6.012755 
	C897.620056,17.138144 889.416504,28.090149 881.967102,39.531292 
	C873.105042,53.142021 864.510132,66.962677 856.547607,81.113327 
	C848.106873,96.113808 840.525513,111.598755 832.639343,126.908432 
	C832.091492,127.971886 832.129028,129.336853 831.785950,131.127045 
	C919.988098,129.184555 1004.680176,143.755798 1085.866089,177.626450 
	C1085.575562,178.716492 1085.178955,179.768295 1085.024048,180.854553 
	C1083.641235,190.549820 1082.785156,200.348495 1080.857178,209.932373 
	C1075.195923,238.076340 1068.629028,266.033234 1058.851807,293.069275 
	C1052.518921,310.581207 1046.009277,328.102112 1038.236816,345.001801 
	C1028.740112,365.650482 1018.895874,386.285004 1007.256470,405.763031 
	C994.766052,426.665222 980.697449,446.729462 966.050720,466.206696 
	C952.959961,483.614868 938.495117,500.039856 923.957031,516.290771 
	C915.237549,526.037476 905.440552,534.867859 895.720398,543.659729 
	C883.409424,554.795044 870.666809,565.452393 858.150635,576.362122 
	C855.001770,579.106750 852.083130,579.235352 848.887695,576.406494 
	C832.002625,561.458313 815.004028,546.637695 798.191833,531.608337 
	C793.106750,527.062439 788.571045,521.906860 783.607849,517.216614 
	C782.313293,515.993286 780.358276,515.468811 778.007080,514.265259 
	C778.007080,517.395935 777.720703,519.270386 778.052246,521.028259 
	C780.733765,535.244934 783.019958,549.562744 786.400085,563.615601 
	C793.451294,592.931152 802.034790,621.781433 812.827881,650.007446 
	C823.469910,677.838013 835.662903,704.883545 850.004822,730.977295 
	C852.633118,735.759094 855.445862,736.281128 860.212463,733.292114 
	C867.093628,728.977173 874.043945,724.772644 881.494812,720.003479 
M537.446106,978.056458 
	C532.415405,970.250610 527.559448,962.321960 522.226562,954.728455 
	C520.952087,952.913513 518.115295,951.227356 515.950073,951.166870 
	C503.795227,950.827087 491.624115,951.122559 479.462616,950.936401 
	C475.343506,950.873291 473.936951,952.324036 473.941101,956.449646 
	C474.023712,1038.767212 474.029419,1121.084839 473.928741,1203.402344 
	C473.923279,1207.876709 475.581238,1209.134644 479.814728,1209.069214 
	C492.475922,1208.873413 505.142151,1209.006104 517.806396,1208.997681 
	C524.981812,1208.992920 524.996704,1208.981567 524.997498,1201.783203 
	C525.002258,1155.292114 524.994080,1108.800903 525.020081,1062.309814 
	C525.021179,1060.292969 525.315308,1058.276367 525.472900,1056.259521 
	C525.896423,1056.140015 526.319946,1056.020386 526.743408,1055.900757 
	C527.738220,1057.100586 528.869141,1058.212646 529.707031,1059.513550 
	C538.865295,1073.734619 547.946594,1088.005493 557.109070,1102.223877 
	C579.208679,1136.518555 601.368652,1170.774170 623.404236,1205.109741 
	C625.119385,1207.782227 626.950745,1209.091553 630.202942,1209.053711 
	C642.365662,1208.912109 654.533081,1208.866333 666.694153,1209.066895 
	C670.982178,1209.137573 672.057556,1207.351318 672.054016,1203.393555 
	C671.979309,1121.075928 671.976196,1038.758301 672.059082,956.440735 
	C672.063232,952.305908 670.638123,950.877808 666.528503,950.936523 
	C653.866882,951.117432 641.200989,950.996460 628.536743,951.001648 
	C621.014648,951.004700 621.002625,951.012146 621.002014,958.373718 
	C620.998108,1004.698181 621.007874,1051.022705 620.972839,1097.347168 
	C620.971313,1099.332153 620.572998,1101.316895 620.359558,1103.301758 
	C619.818359,1103.452148 619.277161,1103.602417 618.735962,1103.752808 
	C591.773193,1062.056885 564.810425,1020.360779 537.446106,978.056458 
M1464.359131,1209.000000 
	C1472.641846,1209.504883 1474.375488,1208.423828 1471.118164,1199.787231 
	C1467.490967,1190.169800 1464.283203,1180.395142 1460.776245,1170.731201 
	C1458.031372,1163.167236 1457.683838,1163.002197 1449.591431,1163.001343 
	C1414.604492,1162.997681 1379.617310,1162.933838 1344.630981,1163.084473 
	C1340.354370,1163.102783 1338.829346,1162.048340 1338.899536,1157.525269 
	C1339.155762,1141.035522 1339.175171,1124.536133 1338.891846,1108.047241 
	C1338.808716,1103.208130 1340.243530,1101.858032 1345.058838,1101.894897 
	C1373.046631,1102.109741 1401.037109,1102.010986 1429.026611,1101.990723 
	C1435.208862,1101.986328 1435.972168,1101.217163 1435.990234,1095.072998 
	C1436.022095,1084.243896 1436.012817,1073.414429 1435.995117,1062.585205 
	C1435.984497,1056.043579 1435.946655,1056.006104 1429.176514,1056.003784 
	C1401.187012,1055.994507 1373.196045,1055.856689 1345.209106,1056.127319 
	C1339.964600,1056.178101 1338.801147,1054.505127 1338.893799,1049.602783 
	C1339.183350,1034.280518 1338.998657,1018.949524 1339.000610,1003.621948 
	C1339.001587,996.005310 1339.004395,996.001038 1346.480469,996.000732 
	C1381.467407,995.999084 1416.454834,995.907654 1451.440674,996.106445 
	C1456.308105,996.134094 1458.749146,995.010864 1460.301880,989.989929 
	C1463.530396,979.548706 1467.755737,969.419373 1471.421875,959.108643 
	C1474.007446,951.836975 1473.347412,951.003296 1465.712280,951.002686 
	C1408.733521,950.997864 1351.754883,950.998779 1294.776123,951.001465 
	C1287.084839,951.001831 1287.003662,951.072815 1287.003174,958.887817 
	C1286.998047,1039.524414 1286.998535,1120.161011 1287.002197,1200.797607 
	C1287.002563,1208.991455 1287.016846,1208.998535 1294.961182,1208.998779 
	C1351.106934,1209.000977 1407.252563,1209.000000 1464.359131,1209.000000 
M381.137756,1108.369385 
	C374.407196,1089.999146 367.655365,1071.636841 360.950745,1053.257080 
	C348.961517,1020.390381 336.972382,987.523499 325.082367,954.620850 
	C324.139648,952.012146 322.831024,950.934753 320.049530,950.961548 
	C308.888489,951.069153 297.725281,951.066956 286.564087,950.967651 
	C283.775421,950.942810 282.422668,952.011658 281.574951,954.672546 
	C279.713440,960.515503 277.550018,966.263794 275.449341,972.028687 
	C263.982513,1003.496765 252.493759,1034.956787 241.019730,1066.422241 
	C233.578506,1086.828369 226.120377,1107.228271 218.722519,1127.650146 
	C209.743393,1152.437134 200.771393,1177.227051 191.909134,1202.055786 
	C189.913498,1207.646729 190.972000,1208.972656 196.787384,1208.987793 
	C210.281769,1209.022949 223.781082,1208.795898 237.268097,1209.113525 
	C241.814514,1209.220581 243.790207,1207.450073 245.076172,1203.415283 
	C248.754395,1191.875000 252.820419,1180.458008 256.456299,1168.905029 
	C257.574280,1165.352661 259.173340,1163.890381 263.084473,1163.914307 
	C290.072418,1164.078857 317.062592,1164.101929 344.049988,1163.895386 
	C348.251801,1163.863281 349.836029,1165.515991 350.993500,1169.177002 
	C354.694824,1180.883911 358.824493,1192.455933 362.483215,1204.175415 
	C363.615692,1207.802979 365.324554,1209.146484 369.170807,1209.083496 
	C382.495117,1208.865601 395.825165,1209.008667 409.153046,1208.996460 
	C416.271118,1208.989868 417.313232,1207.266846 414.891144,1200.659668 
	C403.705811,1170.147705 392.623199,1139.598022 381.137756,1108.369385 
z"/>
<path fill="#1493FF" opacity="1.000000" stroke="none" 
	d="
M854.531311,0.999994 
	C853.739685,4.090733 852.858582,7.409466 851.158875,10.235961 
	C838.264832,31.678082 824.644592,52.705704 812.391296,74.503685 
	C803.164795,90.917282 795.233215,108.103516 787.520813,125.302574 
	C784.213623,132.677811 779.870789,136.118378 771.796448,137.199905 
	C755.363708,139.401047 738.921265,142.056976 722.786926,145.826843 
	C702.129761,150.653473 681.647644,156.348831 661.332397,162.473740 
	C648.954041,166.205704 637.031189,171.448929 624.906616,176.021057 
	C623.708496,176.472870 622.530701,176.978775 620.351807,177.861206 
	C625.984375,205.769730 631.656067,233.871872 637.569519,263.171906 
	C674.422241,247.233871 710.845337,234.437607 749.858765,227.345596 
	C749.858765,229.841110 750.181458,231.647293 749.808594,233.296204 
	C746.302612,248.801147 742.236511,264.193878 739.219421,279.790649 
	C736.557495,293.551514 734.761902,307.499237 733.073669,321.423798 
	C731.395874,335.261566 730.590454,349.208069 728.757751,363.021362 
	C728.419739,365.569122 725.466064,368.737244 722.938171,369.861145 
	C711.420166,374.982117 699.623108,379.475586 686.808044,384.645874 
	C697.788208,402.330414 708.356262,419.447327 719.043884,436.489258 
	C721.375366,440.206879 724.578247,443.430298 726.551270,447.303375 
	C728.047791,450.241180 728.626465,453.814362 728.920105,457.165588 
	C729.796875,467.171783 729.884033,477.262848 731.104614,487.219604 
	C733.009277,502.756073 735.051270,518.313782 738.017273,533.672913 
	C742.201782,555.342163 746.250244,577.130249 752.246094,598.333374 
	C759.464539,623.859436 768.652405,648.829224 777.023193,674.028015 
	C777.889343,676.635315 779.258484,679.101868 779.871948,681.754456 
	C780.142212,682.923157 779.371460,684.624084 778.523621,685.611267 
	C778.200684,685.987305 776.108765,685.338501 775.212036,684.650024 
	C767.439453,678.682678 759.329224,673.064941 752.125183,666.463928 
	C730.648438,646.784912 708.927490,627.308105 688.489807,606.580994 
	C673.885620,591.769958 660.571045,575.555786 647.810974,559.091797 
	C632.355591,539.150146 617.514954,518.670471 603.497986,497.695343 
	C592.776733,481.651947 583.365601,464.686890 574.082092,447.742615 
	C565.877380,432.767487 558.250793,417.441101 551.083130,401.939575 
	C537.121765,371.745392 525.079041,340.740387 516.177368,308.685669 
	C509.369904,284.171967 503.368195,259.390656 498.194061,234.481995 
	C494.451935,216.467102 492.370239,198.083618 490.090668,179.796875 
	C488.567200,167.575668 487.728363,155.250000 487.073425,142.944977 
	C486.403961,130.366318 486.655029,117.735077 485.846039,105.169151 
	C485.508728,99.929802 487.610992,97.079918 491.758484,95.061409 
	C516.731689,82.907280 541.401794,70.056000 566.821045,58.915985 
	C587.558960,49.827572 609.041504,42.336723 630.484070,34.983467 
	C657.517334,25.712988 685.268494,18.968369 713.425232,14.007075 
	C729.141785,11.237781 744.842224,8.289910 760.647766,6.142092 
	C772.680664,4.506936 784.869873,4.031292 796.982361,2.958217 
	C798.191040,2.851137 799.349426,2.176888 800.265625,1.382941 
	C818.020874,1.000000 836.041809,1.000000 854.531311,0.999994 
z"/>
<path fill="#1F375B" opacity="1.000000" stroke="none" 
	d="
M1090.468628,1211.000000 
	C1087.152954,1209.763794 1084.395630,1208.232056 1081.445190,1207.336182 
	C1045.460693,1196.412231 1023.900391,1172.570557 1017.197632,1135.539795 
	C1016.258301,1130.350098 1016.056824,1124.969849 1016.048889,1119.677002 
	C1015.968689,1066.177856 1015.997864,1012.678650 1016.002441,959.179382 
	C1016.003113,951.009033 1016.018250,951.003845 1023.989502,951.001099 
	C1035.989380,950.997009 1047.989136,950.993103 1059.989014,951.002686 
	C1067.098389,951.008301 1067.989136,951.870605 1067.991699,959.074524 
	C1068.007324,1002.740540 1067.999878,1046.406616 1068.000000,1090.072632 
	C1068.000122,1100.905762 1067.997437,1111.739014 1068.000610,1122.572144 
	C1068.006714,1143.949097 1080.429932,1160.296143 1101.197998,1164.448364 
	C1126.720459,1169.551392 1151.249634,1157.262817 1155.048218,1127.801758 
	C1155.534302,1124.031250 1155.955811,1120.218628 1155.960083,1116.425171 
	C1156.019043,1063.759277 1155.998413,1011.093445 1156.001831,958.427551 
	C1156.002319,951.012878 1156.013428,951.005310 1163.485229,951.001648 
	C1175.818359,950.995605 1188.155640,951.183777 1200.482544,950.908020 
	C1205.240723,950.801575 1207.057129,952.369019 1207.049927,957.153687 
	C1206.965454,1013.152710 1207.414551,1069.156738 1206.773804,1125.148560 
	C1206.538940,1145.672485 1199.391357,1164.314941 1185.499512,1180.158691 
	C1172.159302,1195.373169 1155.330811,1204.112305 1136.093872,1208.978882 
	C1135.046509,1209.243774 1134.075806,1209.812256 1133.034668,1210.619751 
	C1118.979126,1211.000000 1104.958130,1211.000000 1090.468628,1211.000000 
z"/>
<path fill="#1F375B" opacity="1.000000" stroke="none" 
	d="
M1.000000,951.468628 
	C60.297665,951.000061 119.595329,950.997986 178.892990,951.002747 
	C186.348083,951.003357 187.272095,952.139038 184.826492,959.091553 
	C180.920898,970.194458 176.742737,981.201416 172.834854,992.303528 
	C171.528458,996.014832 168.789413,996.032349 165.650543,996.028320 
	C130.005371,995.982971 94.360130,995.997620 58.714905,996.001892 
	C52.011578,996.002686 52.003635,996.014221 52.001667,1002.885132 
	C51.996895,1019.541809 52.236721,1036.203735 51.863949,1052.852051 
	C51.743752,1058.220337 53.673542,1059.130981 58.456379,1059.095825 
	C85.438690,1058.897339 112.423210,1058.992676 139.406982,1059.004761 
	C147.104935,1059.008179 147.936584,1060.331055 145.340607,1067.471558 
	C141.488586,1078.066650 137.681091,1088.681030 134.088943,1099.366089 
	C132.721390,1103.433838 130.498978,1105.115112 126.077721,1105.080688 
	C103.426048,1104.905029 80.771011,1105.125366 58.120258,1104.898071 
	C53.390774,1104.850708 51.855488,1106.064453 51.891075,1110.982422 
	C52.109207,1141.129517 52.006432,1171.278687 51.994938,1201.427246 
	C51.992119,1208.823120 51.802097,1208.994873 44.411781,1208.998169 
	C30.253628,1209.004639 16.095470,1209.000000 1.468657,1209.000000 
	C1.000000,1123.312500 1.000000,1037.624878 1.000000,951.468628 
z"/>
<path fill="#1F375B" opacity="1.000000" stroke="none" 
	d="
M1706.000000,1208.539307 
	C1650.355591,1209.000000 1594.711182,1209.002075 1539.066772,1208.997070 
	C1532.027588,1208.996338 1532.004028,1208.978638 1532.003540,1202.158569 
	C1531.998047,1120.691162 1531.997803,1039.223755 1532.003906,957.756348 
	C1532.004395,951.069641 1532.064697,951.013550 1538.651733,951.004883 
	C1550.980103,950.988770 1563.308594,950.993896 1575.636963,951.002502 
	C1582.714233,951.007385 1582.991699,951.255615 1582.993408,958.300964 
	C1583.005005,1008.947388 1582.999756,1059.593750 1583.000122,1110.240234 
	C1583.000122,1126.067261 1583.126343,1141.895874 1582.916992,1157.720093 
	C1582.861694,1161.896606 1584.212524,1163.096313 1588.325195,1163.077881 
	C1620.311768,1162.934937 1652.300171,1163.116455 1684.285767,1162.890869 
	C1689.964233,1162.850830 1692.649536,1164.966675 1694.287598,1170.238159 
	C1696.794189,1178.303589 1699.955933,1186.168457 1702.959351,1194.072998 
	C1703.384155,1195.191406 1704.482910,1196.053833 1705.634766,1197.017334 
	C1706.000000,1200.692871 1706.000000,1204.385864 1706.000000,1208.539307 
z"/>
<path fill="#1493FF" opacity="1.000000" stroke="none" 
	d="
M881.229797,720.262207 
	C874.043945,724.772644 867.093628,728.977173 860.212463,733.292114 
	C855.445862,736.281128 852.633118,735.759094 850.004822,730.977295 
	C835.662903,704.883545 823.469910,677.838013 812.827881,650.007446 
	C802.034790,621.781433 793.451294,592.931152 786.400085,563.615601 
	C783.019958,549.562744 780.733765,535.244934 778.052246,521.028259 
	C777.720703,519.270386 778.007080,517.395935 778.007080,514.265259 
	C780.358276,515.468811 782.313293,515.993286 783.607849,517.216614 
	C788.571045,521.906860 793.106750,527.062439 798.191833,531.608337 
	C815.004028,546.637695 832.002625,561.458313 848.887695,576.406494 
	C852.083130,579.235352 855.001770,579.106750 858.150635,576.362122 
	C870.666809,565.452393 883.409424,554.795044 895.720398,543.659729 
	C905.440552,534.867859 915.237549,526.037476 923.957031,516.290771 
	C938.495117,500.039856 952.959961,483.614868 966.050720,466.206696 
	C980.697449,446.729462 994.766052,426.665222 1007.256470,405.763031 
	C1018.895874,386.285004 1028.740112,365.650482 1038.236816,345.001801 
	C1046.009277,328.102112 1052.518921,310.581207 1058.851807,293.069275 
	C1068.629028,266.033234 1075.195923,238.076340 1080.857178,209.932373 
	C1082.785156,200.348495 1083.641235,190.549820 1085.024048,180.854553 
	C1085.178955,179.768295 1085.575562,178.716492 1085.866089,177.626450 
	C1004.680176,143.755798 919.988098,129.184555 831.785950,131.127045 
	C832.129028,129.336853 832.091492,127.971886 832.639343,126.908432 
	C840.525513,111.598755 848.106873,96.113808 856.547607,81.113327 
	C864.510132,66.962677 873.105042,53.142021 881.967102,39.531292 
	C889.416504,28.090149 897.620056,17.138144 905.550293,6.012755 
	C909.355042,0.675100 915.052307,3.013164 919.836182,3.222558 
	C927.316101,3.549963 934.744446,5.026925 942.197998,5.991140 
	C952.733032,7.353986 963.357727,8.223553 973.788452,10.147714 
	C991.511169,13.417057 1009.202271,16.961756 1026.745850,21.076210 
	C1061.343384,29.190266 1095.267212,39.616024 1127.963257,53.605076 
	C1149.755615,62.928974 1171.260864,72.943970 1192.702881,83.056366 
	C1201.357178,87.137939 1209.586914,92.159523 1217.799316,97.103264 
	C1219.371460,98.049660 1220.816162,100.612747 1220.859985,102.464523 
	C1221.135986,114.123428 1221.507202,125.819870 1220.870728,137.450485 
	C1220.082153,151.862442 1218.618164,166.254227 1216.949219,180.596924 
	C1214.891724,198.277969 1213.035400,216.031982 1209.785400,233.511490 
	C1206.140503,253.115097 1201.425903,272.547333 1196.473633,291.873932 
	C1188.985962,321.094849 1179.585938,349.810974 1167.538818,377.412994 
	C1155.785156,404.343323 1142.671021,430.750427 1128.804321,456.665009 
	C1118.323730,476.251221 1106.365234,495.140076 1093.871948,513.529114 
	C1081.793335,531.307617 1068.338013,548.164185 1055.220581,565.220520 
	C1035.382935,591.015076 1012.356567,613.919250 988.914978,636.332336 
	C975.518799,649.140747 961.251099,661.122498 946.687622,672.603516 
	C929.032715,686.521667 910.679749,699.557007 892.560181,712.880920 
	C889.033081,715.474609 885.191406,717.640320 881.229797,720.262207 
z"/>
<path fill="#1F375B" opacity="1.000000" stroke="none" 
	d="
M537.646851,978.360596 
	C564.810425,1020.360779 591.773193,1062.056885 618.735962,1103.752808 
	C619.277161,1103.602417 619.818359,1103.452148 620.359558,1103.301758 
	C620.572998,1101.316895 620.971313,1099.332153 620.972839,1097.347168 
	C621.007874,1051.022705 620.998108,1004.698181 621.002014,958.373718 
	C621.002625,951.012146 621.014648,951.004700 628.536743,951.001648 
	C641.200989,950.996460 653.866882,951.117432 666.528503,950.936523 
	C670.638123,950.877808 672.063232,952.305908 672.059082,956.440735 
	C671.976196,1038.758301 671.979309,1121.075928 672.054016,1203.393555 
	C672.057556,1207.351318 670.982178,1209.137573 666.694153,1209.066895 
	C654.533081,1208.866333 642.365662,1208.912109 630.202942,1209.053711 
	C626.950745,1209.091553 625.119385,1207.782227 623.404236,1205.109741 
	C601.368652,1170.774170 579.208679,1136.518555 557.109070,1102.223877 
	C547.946594,1088.005493 538.865295,1073.734619 529.707031,1059.513550 
	C528.869141,1058.212646 527.738220,1057.100586 526.743408,1055.900757 
	C526.319946,1056.020386 525.896423,1056.140015 525.472900,1056.259521 
	C525.315308,1058.276367 525.021179,1060.292969 525.020081,1062.309814 
	C524.994080,1108.800903 525.002258,1155.292114 524.997498,1201.783203 
	C524.996704,1208.981567 524.981812,1208.992920 517.806396,1208.997681 
	C505.142151,1209.006104 492.475922,1208.873413 479.814728,1209.069214 
	C475.581238,1209.134644 473.923279,1207.876709 473.928741,1203.402344 
	C474.029419,1121.084839 474.023712,1038.767212 473.941101,956.449646 
	C473.936951,952.324036 475.343506,950.873291 479.462616,950.936401 
	C491.624115,951.122559 503.795227,950.827087 515.950073,951.166870 
	C518.115295,951.227356 520.952087,952.913513 522.226562,954.728455 
	C527.559448,962.321960 532.415405,970.250610 537.646851,978.360596 
z"/>
<path fill="#1F375B" opacity="1.000000" stroke="none" 
	d="
M860.947449,998.096313 
	C853.211060,997.397522 845.479736,996.168945 837.737427,996.096252 
	C811.104980,995.845947 784.468140,995.919678 757.834290,996.078979 
	C753.415100,996.105347 751.465088,995.025391 750.702576,990.234802 
	C748.988708,979.467834 746.386902,968.843811 744.218872,958.146973 
	C743.062622,952.442566 744.289673,951.009888 750.224304,951.007690 
	C787.180176,950.994202 824.146912,950.466187 861.087341,951.220947 
	C880.328735,951.614197 898.008057,958.064392 913.234253,970.589417 
	C924.301147,979.693115 932.111267,990.857178 936.909424,1004.777100 
	C937.240906,1005.890503 937.676636,1006.427124 938.112427,1006.963684 
	C940.074951,1017.643921 943.128296,1028.259888 943.763000,1039.018433 
	C944.927734,1058.761230 945.229553,1078.599365 944.835449,1098.376709 
	C944.469910,1116.718506 944.364990,1135.253296 938.122070,1152.919922 
	C927.432312,1183.170288 905.643860,1200.610840 874.668640,1206.851807 
	C866.931396,1208.410767 858.867371,1208.844482 850.946533,1208.907593 
	C821.785522,1209.140259 792.621643,1209.007080 763.458801,1208.994385 
	C756.582520,1208.991455 756.006714,1208.419312 756.005615,1201.555664 
	C755.996460,1145.729614 755.994568,1089.903687 756.008423,1034.077637 
	C756.010193,1026.871582 756.901855,1026.008179 764.006287,1026.002686 
	C776.171326,1025.993164 788.336426,1025.987549 800.501465,1026.005005 
	C807.406128,1026.015015 807.992126,1026.582397 807.994019,1033.404663 
	C808.005432,1074.399292 807.997742,1115.393799 808.002258,1156.388428 
	C808.002991,1162.980957 808.016418,1162.992310 814.494507,1162.997437 
	C825.826355,1163.006348 837.158142,1163.002563 848.489990,1162.999512 
	C871.445496,1162.993408 887.762817,1148.669312 890.968872,1125.843872 
	C894.482239,1100.830933 892.600891,1075.682739 892.867554,1050.592651 
	C892.923279,1045.347900 891.721008,1040.089966 891.466797,1034.371826 
	C892.338013,1032.765991 893.493408,1031.441528 893.231934,1030.518433 
	C892.030457,1026.276367 890.647644,1022.050964 888.856323,1018.030701 
	C888.266541,1016.707153 886.252380,1016.018250 884.889526,1015.039185 
	C883.023438,1012.916626 881.157349,1010.794067 879.098267,1008.030396 
	C874.251648,1001.717041 868.709229,997.762329 860.947449,998.096313 
z"/>
<path fill="#1F375B" opacity="1.000000" stroke="none" 
	d="
M1463.878662,1209.000000 
	C1407.252563,1209.000000 1351.106934,1209.000977 1294.961182,1208.998779 
	C1287.016846,1208.998535 1287.002563,1208.991455 1287.002197,1200.797607 
	C1286.998535,1120.161011 1286.998047,1039.524414 1287.003174,958.887817 
	C1287.003662,951.072815 1287.084839,951.001831 1294.776123,951.001465 
	C1351.754883,950.998779 1408.733521,950.997864 1465.712280,951.002686 
	C1473.347412,951.003296 1474.007446,951.836975 1471.421875,959.108643 
	C1467.755737,969.419373 1463.530396,979.548706 1460.301880,989.989929 
	C1458.749146,995.010864 1456.308105,996.134094 1451.440674,996.106445 
	C1416.454834,995.907654 1381.467407,995.999084 1346.480469,996.000732 
	C1339.004395,996.001038 1339.001587,996.005310 1339.000610,1003.621948 
	C1338.998657,1018.949524 1339.183350,1034.280518 1338.893799,1049.602783 
	C1338.801147,1054.505127 1339.964600,1056.178101 1345.209106,1056.127319 
	C1373.196045,1055.856689 1401.187012,1055.994507 1429.176514,1056.003784 
	C1435.946655,1056.006104 1435.984497,1056.043579 1435.995117,1062.585205 
	C1436.012817,1073.414429 1436.022095,1084.243896 1435.990234,1095.072998 
	C1435.972168,1101.217163 1435.208862,1101.986328 1429.026611,1101.990723 
	C1401.037109,1102.010986 1373.046631,1102.109741 1345.058838,1101.894897 
	C1340.243530,1101.858032 1338.808716,1103.208130 1338.891846,1108.047241 
	C1339.175171,1124.536133 1339.155762,1141.035522 1338.899536,1157.525269 
	C1338.829346,1162.048340 1340.354370,1163.102783 1344.630981,1163.084473 
	C1379.617310,1162.933838 1414.604492,1162.997681 1449.591431,1163.001343 
	C1457.683838,1163.002197 1458.031372,1163.167236 1460.776245,1170.731201 
	C1464.283203,1180.395142 1467.490967,1190.169800 1471.118164,1199.787231 
	C1474.375488,1208.423828 1472.641846,1209.504883 1463.878662,1209.000000 
z"/>
<path fill="#1F375B" opacity="1.000000" stroke="none" 
	d="
M381.320770,1108.715576 
	C392.623199,1139.598022 403.705811,1170.147705 414.891144,1200.659668 
	C417.313232,1207.266846 416.271118,1208.989868 409.153046,1208.996460 
	C395.825165,1209.008667 382.495117,1208.865601 369.170807,1209.083496 
	C365.324554,1209.146484 363.615692,1207.802979 362.483215,1204.175415 
	C358.824493,1192.455933 354.694824,1180.883911 350.993500,1169.177002 
	C349.836029,1165.515991 348.251801,1163.863281 344.049988,1163.895386 
	C317.062592,1164.101929 290.072418,1164.078857 263.084473,1163.914307 
	C259.173340,1163.890381 257.574280,1165.352661 256.456299,1168.905029 
	C252.820419,1180.458008 248.754395,1191.875000 245.076172,1203.415283 
	C243.790207,1207.450073 241.814514,1209.220581 237.268097,1209.113525 
	C223.781082,1208.795898 210.281769,1209.022949 196.787384,1208.987793 
	C190.972000,1208.972656 189.913498,1207.646729 191.909134,1202.055786 
	C200.771393,1177.227051 209.743393,1152.437134 218.722519,1127.650146 
	C226.120377,1107.228271 233.578506,1086.828369 241.019730,1066.422241 
	C252.493759,1034.956787 263.982513,1003.496765 275.449341,972.028687 
	C277.550018,966.263794 279.713440,960.515503 281.574951,954.672546 
	C282.422668,952.011658 283.775421,950.942810 286.564087,950.967651 
	C297.725281,951.066956 308.888489,951.069153 320.049530,950.961548 
	C322.831024,950.934753 324.139648,952.012146 325.082367,954.620850 
	C336.972382,987.523499 348.961517,1020.390381 360.950745,1053.257080 
	C367.655365,1071.636841 374.407196,1089.999146 381.320770,1108.715576 
M310.502625,1047.005615 
	C308.786896,1041.980469 307.071167,1036.955200 305.355438,1031.930054 
	C304.760895,1031.963135 304.166351,1031.996216 303.571808,1032.029297 
	C293.484497,1061.107666 283.397217,1090.186035 273.166107,1119.678955 
	C294.187531,1119.678955 314.235748,1119.678955 335.108673,1119.678955 
	C326.891266,1095.340942 318.854462,1071.537720 310.502625,1047.005615 
z"/>
<path fill="#1F375B" opacity="1.000000" stroke="none" 
	d="
M884.966187,1015.396851 
	C886.252380,1016.018250 888.266541,1016.707153 888.856323,1018.030701 
	C890.647644,1022.050964 892.030457,1026.276367 893.231934,1030.518433 
	C893.493408,1031.441528 892.338013,1032.765991 891.498474,1033.952271 
	C889.122131,1027.917480 887.082458,1021.835999 884.966187,1015.396851 
z"/>
<path fill="#1F375B" opacity="1.000000" stroke="none" 
	d="
M861.198608,998.350220 
	C868.709229,997.762329 874.251648,1001.717041 878.933228,1007.748657 
	C873.124084,1004.940002 867.286926,1001.772095 861.198608,998.350220 
z"/>
<path fill="#1F375B" opacity="1.000000" stroke="none" 
	d="
M938.047241,1006.678345 
	C937.676636,1006.427124 937.240906,1005.890503 936.950073,1005.149780 
	C937.390686,1005.428101 937.686340,1005.910522 938.047241,1006.678345 
z"/>
<path fill="#000000" opacity="1.000000" stroke="none" 
	d="
M310.660126,1047.370117 
	C318.854462,1071.537720 326.891266,1095.340942 335.108673,1119.678955 
	C314.235748,1119.678955 294.187531,1119.678955 273.166107,1119.678955 
	C283.397217,1090.186035 293.484497,1061.107666 303.571808,1032.029297 
	C304.166351,1031.996216 304.760895,1031.963135 305.355438,1031.930054 
	C307.071167,1036.955200 308.786896,1041.980469 310.660126,1047.370117 
z"/>
</svg>