<svg version="1.1" id="Layer_1" xmlns="http://www.w3.org/2000/svg" xmlns:xlink="http://www.w3.org/1999/xlink" x="0px" y="0px"
	 width="100%" viewBox="0 0 1024 1024" enable-background="new 0 0 1024 1024" xml:space="preserve">
<path fill="#000000" opacity="1.000000" stroke="none" 
	d="
M234.902222,732.193970 
	C209.581955,732.172241 184.750015,732.058777 159.919800,732.216553 
	C155.265976,732.246155 153.347763,731.020264 153.555313,726.049683 
	C153.916534,717.398315 153.627533,708.721252 153.720810,700.056091 
	C153.741318,698.150574 153.242828,696.071960 154.829956,694.106689 
	C157.291885,695.265930 157.572845,697.802185 158.293747,699.808167 
	C159.424988,702.955872 161.341141,705.472778 163.987839,707.206055 
	C169.447220,710.781006 175.556870,713.305115 181.836838,714.671448 
	C189.629883,716.367188 193.647186,710.021729 197.217957,704.845764 
	C201.395523,698.790222 203.680176,691.792419 203.120438,684.082520 
	C201.746811,665.161865 202.032272,646.178955 201.310089,627.243591 
	C200.481537,605.519531 202.463928,583.990112 203.523453,562.376404 
	C204.539078,541.658386 200.529099,521.980774 188.972900,504.307831 
	C186.740112,500.893250 183.538651,499.014679 179.531067,498.399200 
	C177.387161,498.069977 175.253815,497.696289 173.602310,496.048340 
	C170.704117,493.156342 168.894257,494.719849 167.633270,497.672089 
	C164.174545,505.769745 158.586441,512.874756 156.492020,521.614258 
	C156.317413,522.342896 155.662018,522.956299 154.328079,523.486145 
	C154.328079,497.544830 154.328079,471.603516 154.328079,445.221130 
	C158.598129,446.647217 159.944458,450.420013 162.020233,453.388580 
	C163.635162,455.698090 164.715164,458.382629 166.338409,460.685089 
	C167.919800,462.928131 170.903564,463.924103 171.943527,461.088501 
	C174.502502,454.111084 179.854248,449.356964 184.136917,443.749146 
	C190.369400,435.588196 190.552887,425.818085 191.768738,416.238098 
	C193.957123,398.995544 194.745575,381.755646 193.020874,364.432068 
	C192.224411,356.432281 190.225372,348.724915 187.168686,341.329224 
	C185.979202,338.451233 186.006958,335.832672 187.180252,333.133942 
	C189.766418,327.185577 192.175232,321.164978 195.565445,315.580841 
	C200.400238,307.617310 200.037827,304.973785 193.303162,298.907440 
	C190.261795,296.167877 189.336319,292.782135 189.605698,289.011230 
	C189.869095,285.323975 187.966248,283.815308 184.740631,283.384399 
	C181.417603,282.940521 178.100601,282.886261 174.846176,283.960724 
	C173.025330,284.561920 171.053467,285.479004 170.745575,287.294983 
	C169.689896,293.521729 166.496780,298.853058 163.764297,304.302399 
	C159.492630,312.821289 162.246048,322.099915 160.114090,330.818146 
	C158.232010,338.514648 156.842239,346.331512 154.068069,354.049774 
	C153.958252,352.343292 153.756454,350.637024 153.752594,348.930298 
	C153.704208,327.598694 153.750305,306.266510 153.596802,284.935760 
	C153.569153,281.091797 154.794754,279.656189 158.751678,279.670959 
	C189.748947,279.786774 220.746964,279.781647 251.744293,279.678467 
	C255.280685,279.666687 257.162903,281.040680 258.609924,284.156097 
	C281.897400,334.294525 305.261993,384.397156 328.621063,434.502319 
	C331.857574,441.444733 335.429321,448.245087 338.355591,455.314117 
	C341.487732,462.880493 347.908539,465.372833 354.947937,466.978027 
	C357.800201,467.628479 358.284607,464.676910 359.120453,462.862885 
	C366.020081,447.888855 372.872681,432.892578 379.640564,417.858521 
	C399.669769,373.366150 419.674744,328.862793 439.612946,284.329590 
	C441.124390,280.953674 443.326294,279.706787 446.969574,279.719299 
	C477.966949,279.825897 508.965240,279.889038 539.962036,279.728546 
	C544.967041,279.702667 546.171936,281.716309 546.150208,286.274902 
	C545.994263,318.937958 545.978943,351.601837 545.990662,384.265472 
	C546.031677,498.255524 546.077393,612.245667 546.246948,726.235535 
	C546.253906,730.924988 544.672729,732.241516 540.168823,732.212463 
	C515.838684,732.055176 491.506958,732.151367 467.175781,732.156616 
	C459.446808,732.158325 459.553711,732.153625 459.565216,724.541870 
	C459.623383,686.044678 459.625885,647.547302 459.638885,609.050049 
	C459.649323,578.218872 459.646912,547.387634 459.649780,516.556458 
	C459.650543,508.232513 459.649902,499.908569 459.649902,490.827820 
	C456.148499,492.745483 456.053833,490.422028 455.453766,488.822601 
	C453.997711,484.941864 453.086334,480.834686 450.048615,477.681488 
	C448.030518,475.586639 445.957550,473.759918 442.529083,473.496399 
	C439.879303,476.624573 438.092712,480.551392 436.206848,484.379150 
	C409.127838,539.341003 382.107117,594.331543 354.985779,649.272522 
	C353.678741,651.920288 353.292511,656.114868 349.302856,656.015442 
	C345.650055,655.924316 345.281281,651.920532 344.039124,649.397705 
	C322.265442,605.175903 300.626312,560.887939 278.896790,516.644287 
	C271.775360,502.144287 264.516449,487.711304 257.228729,473.294006 
	C256.038330,470.938965 254.462677,468.758026 252.901382,466.615967 
	C250.724335,463.629120 247.728287,463.768097 246.279175,467.233521 
	C244.271957,472.033600 242.156586,476.629852 242.172577,482.308746 
	C242.400742,563.302612 242.330215,644.297302 242.324249,725.291809 
	C242.323746,732.132996 242.298889,732.132996 234.902222,732.193970 
z"/>
<path fill="#000000" opacity="1.000000" stroke="none" 
	d="
M895.123352,573.867371 
	C889.782532,598.302063 882.249268,621.480408 869.468994,642.679810 
	C842.170288,687.961853 803.012634,716.925903 751.134033,728.084473 
	C730.164856,732.594727 708.808411,732.256714 687.498230,732.209717 
	C656.668091,732.141663 625.836853,732.070251 595.008118,732.284851 
	C589.908813,732.320312 588.547363,730.795593 588.551453,725.768738 
	C588.669617,579.115356 588.661621,432.461823 588.540771,285.808472 
	C588.536682,280.870026 590.222534,279.626038 594.895935,279.646912 
	C630.891968,279.807587 666.889709,279.609772 702.885559,279.792053 
	C738.180420,279.970825 771.862305,286.682556 803.111267,304.111694 
	C841.882751,325.736542 867.147217,358.520813 883.353638,399.049408 
	C892.491394,421.900970 897.804382,445.761169 900.001343,470.172028 
	C901.819641,490.376801 901.997070,510.671387 900.552490,531.001831 
	C899.537537,545.285828 898.077393,559.440063 895.123352,573.867371 
M677.342529,511.499939 
	C677.342041,555.490173 677.338501,599.480408 677.344299,643.470642 
	C677.345154,649.818909 678.454529,650.962402 684.896729,651.047424 
	C701.423401,651.265503 717.798645,650.059998 733.810913,645.622559 
	C762.981873,637.538330 784.703491,620.678833 796.162109,592.071411 
	C803.660583,573.350586 806.752136,553.607239 807.508789,533.621216 
	C808.238953,514.334473 808.400452,495.019318 806.826965,475.702271 
	C805.332947,457.360474 802.406372,439.386139 795.585022,422.268036 
	C785.281555,396.411438 767.568420,377.809509 741.289246,367.621429 
	C723.084045,360.563538 704.213867,358.827454 684.943909,359.317902 
	C677.780701,359.500275 677.335632,359.816223 677.335510,367.031952 
	C677.334534,414.854584 677.339111,462.677246 677.342529,511.499939 
z"/>
</svg>