<svg version="1.1" id="Layer_1" xmlns="http://www.w3.org/2000/svg" xmlns:xlink="http://www.w3.org/1999/xlink" x="0px" y="0px"
	 width="100%" viewBox="0 0 692 694" enable-background="new 0 0 692 694" xml:space="preserve">
<path fill="#E95A29" opacity="1.000000" stroke="none" 
	d="
M693.000000,176.000000 
	C693.000000,349.333313 693.000000,522.166626 693.000000,695.000000 
	C462.333344,695.000000 231.666718,695.000000 1.000054,695.000000 
	C1.000036,463.666718 1.000036,232.333405 1.000018,1.000085 
	C231.666611,1.000057 462.333221,1.000057 692.999878,1.000028 
	C693.000000,59.166668 693.000000,117.333336 693.000000,176.000000 
M401.220673,67.007095 
	C404.072021,68.871727 406.923401,70.736351 409.774780,72.600975 
	C410.152679,72.209816 410.530609,71.818657 410.908539,71.427498 
	C406.775635,67.913322 402.538727,64.510254 398.581818,60.808029 
	C397.573090,59.864220 397.451996,57.971756 396.923065,56.515163 
	C398.302948,56.331879 399.751129,55.787376 401.049927,56.032974 
	C404.965546,56.773384 408.793243,57.993877 412.716675,58.671398 
	C414.506958,58.980553 416.441437,58.454735 418.310547,58.307629 
	C418.387024,57.595329 418.463531,56.883034 418.540039,56.170738 
	C416.536316,55.431320 414.584961,54.407211 412.515259,54.026512 
	C410.078247,53.578255 407.496246,53.914360 405.061584,53.458935 
	C403.855591,53.233337 402.838867,51.995964 401.736511,51.216320 
	C402.735962,50.322773 403.600922,48.947327 404.759491,48.623993 
	C408.582947,47.556973 412.509064,46.853691 416.403503,46.047958 
	C417.542938,45.812214 418.707977,45.700390 419.861298,45.531769 
	C419.179657,44.602955 418.498016,43.674141 417.816376,42.745327 
	C411.221680,43.585514 404.626953,44.425697 396.623840,45.445316 
	C397.889526,42.440197 398.331879,40.556248 399.367950,39.092590 
	C402.044708,35.311211 405.273682,31.890991 407.659302,27.949572 
	C408.486237,26.583286 407.480988,24.108055 407.312653,22.139353 
	C405.794006,22.690704 403.864105,22.833126 402.833466,23.869677 
	C399.678772,27.042477 396.940430,30.624641 393.889221,33.907310 
	C392.752380,35.130413 391.198303,35.965740 389.834503,36.977901 
	C389.537170,35.363495 388.836609,33.701859 389.019104,32.143650 
	C389.540161,27.694513 390.539734,23.301672 391.070251,18.853201 
	C391.193634,17.818232 390.201477,16.650227 389.722626,15.543427 
	C388.722076,16.408171 387.116974,17.114891 386.841400,18.169130 
	C386.178345,20.705879 386.254181,23.424805 385.818573,26.034622 
	C385.216187,29.643202 384.417816,33.219063 383.703369,36.808937 
	C383.136475,36.878738 382.569611,36.948540 382.002716,37.018345 
	C380.853149,35.559029 379.425964,34.239670 378.606476,32.613964 
	C376.216583,27.872831 374.116028,22.986828 371.807098,18.203440 
	C370.692871,15.895107 369.790558,12.543843 366.208557,14.421689 
	C363.085449,16.058966 363.984985,18.812382 365.474701,21.314997 
	C367.343140,24.453802 369.403290,27.503002 370.968140,30.787434 
	C371.730194,32.386795 371.555420,34.432507 371.804718,36.276169 
	C370.022827,35.877369 368.001923,35.880527 366.510315,34.993568 
	C363.672241,33.305931 361.279175,30.858635 358.414490,29.231838 
	C357.012268,28.435528 354.966797,28.771904 353.212463,28.595615 
	C353.902832,30.253675 354.130737,32.514709 355.366089,33.462181 
	C359.956238,36.982594 364.942749,39.980885 369.638123,43.372272 
	C371.190704,44.493664 372.313538,46.210049 373.632843,47.654392 
	C373.392487,48.156029 373.152130,48.657669 372.911774,49.159306 
	C364.473999,48.700859 356.036224,48.242413 347.598450,47.783970 
	C347.533600,48.530922 347.468719,49.277878 347.403870,50.024830 
	C356.344299,50.712795 365.284729,51.400761 374.225189,52.088726 
	C374.301331,52.763786 374.377502,53.438843 374.453674,54.113903 
	C367.733337,58.398304 361.013000,62.682709 354.292633,66.967110 
	C354.720215,67.763145 355.147797,68.559189 355.575378,69.355225 
	C361.236145,66.590279 366.896912,63.825329 372.557709,61.060379 
	C373.087494,61.683884 373.617279,62.307384 374.147064,62.930889 
	C370.520355,68.172104 366.893616,73.413315 363.266907,78.654533 
	C363.799622,79.064537 364.332336,79.474548 364.865051,79.884552 
	C370.020508,73.941948 375.175995,67.999344 380.887756,61.415516 
	C384.182129,70.332985 377.012238,77.611725 380.476105,84.896545 
	C381.191406,84.993271 381.906738,85.089996 382.622040,85.186722 
	C383.822601,77.955711 385.023132,70.724709 386.223694,63.493706 
	C386.808746,63.521095 387.393829,63.548485 387.978882,63.575878 
	C388.902374,64.687752 389.911560,65.740082 390.733246,66.922684 
	C393.196594,70.467918 395.488525,74.137611 398.075104,77.588020 
	C398.714111,78.440460 400.217712,78.644760 401.323883,79.146996 
	C401.392822,77.846504 401.842682,76.413422 401.446350,75.274895 
	C400.758057,73.297707 399.546753,71.502609 399.611572,68.512276 
	C399.874420,68.071701 400.137299,67.631126 401.220673,67.007095 
M446.841705,383.284180 
	C442.246246,373.152863 437.866241,362.916962 433.010315,352.912079 
	C422.992371,332.271515 412.699860,311.764404 402.558472,291.183563 
	C390.011444,265.720581 377.552856,240.213882 364.964020,214.771606 
	C352.808868,190.205765 340.531921,165.700241 328.318298,141.163315 
	C323.161438,130.803238 318.029785,120.430588 312.298065,108.877121 
	C265.438141,201.091949 219.139099,292.203094 172.533585,383.917297 
	C174.986221,384.053375 176.136017,384.165344 177.286575,384.173859 
	C200.781403,384.348114 224.278076,384.396545 247.769958,384.757233 
	C253.492111,384.845093 256.843506,382.788452 259.487823,377.615143 
	C275.814240,345.674347 292.435577,313.884308 308.968842,282.049255 
	C310.005920,280.052368 311.127228,278.099213 312.563477,275.479889 
	C329.674194,311.448364 346.432709,346.676483 362.791779,382.623291 
	C360.753235,383.073456 358.717102,383.901398 356.675812,383.914398 
	C339.520630,384.023926 322.364532,383.974670 305.208771,384.003967 
	C303.508301,384.006866 301.808167,384.215057 299.087982,384.395721 
	C335.663818,450.231812 371.717560,515.128113 408.215851,580.824707 
	C409.657043,578.637878 410.650391,577.364197 411.399658,575.960205 
	C444.447266,514.041443 477.481506,452.115509 510.458313,390.159058 
	C511.370178,388.445831 511.637329,386.389404 512.352478,384.000763 
	C489.846039,384.000763 468.396362,384.000763 446.841705,383.284180 
M453.082550,28.255991 
	C466.354584,22.003317 476.633331,25.217411 483.581177,39.378349 
	C485.905823,28.901426 484.342163,25.456436 475.833832,23.787420 
	C470.240112,22.690134 464.238037,22.460819 458.580627,23.157251 
	C447.154266,24.563848 438.500549,33.103168 436.023743,44.167122 
	C433.184967,56.848034 436.925629,67.983963 447.182831,74.211075 
	C458.937927,81.347557 471.371887,79.755356 483.646576,75.229454 
	C484.556335,74.894020 485.611389,73.702827 485.759766,72.775223 
	C486.313568,69.313606 486.517578,65.796043 486.852844,62.299461 
	C486.389313,62.147434 485.925781,61.995407 485.462250,61.843380 
	C484.632385,63.300953 483.801666,64.758064 482.972717,66.216179 
	C477.231781,76.314461 462.942749,79.020126 453.635193,72.119934 
	C441.474213,63.104340 440.607025,35.798122 453.082550,28.255991 
M601.939697,58.190331 
	C600.197693,76.425591 611.110291,83.805481 630.699524,77.892342 
	C632.100647,78.905067 633.453125,80.693260 634.618896,80.578880 
	C638.727539,80.175774 642.929871,79.557137 646.788330,78.165382 
	C649.579895,77.158432 649.874390,74.268547 646.845825,73.091545 
	C643.179810,71.666824 642.933105,69.162308 642.950745,65.991142 
	C643.019104,53.679394 642.913879,41.366585 643.000488,29.055063 
	C643.080383,17.700993 642.854309,17.490973 631.861816,21.262197 
	C630.918396,21.585869 629.453735,21.729164 629.174561,22.368261 
	C628.614441,23.650644 628.135986,26.244036 628.616455,26.511227 
	C634.348145,29.698372 631.459778,34.516857 631.843994,38.840427 
	C612.363770,38.117985 604.415161,43.170948 601.939697,58.190331 
M541.095459,77.870064 
	C545.041321,81.422852 550.443359,81.818367 554.110718,78.529160 
	C555.069031,77.669617 555.667236,75.975357 555.666199,74.665108 
	C555.665649,74.025116 553.695740,73.561630 552.994263,72.708321 
	C551.795227,71.249702 550.183533,69.625465 549.996765,67.932716 
	C549.397095,62.496250 549.698181,56.957199 549.046448,51.530430 
	C548.013489,42.929733 545.092896,39.518471 536.486023,38.742668 
	C531.578186,38.300297 526.335449,39.703960 521.508179,41.156055 
	C519.573486,41.738007 517.791321,44.460011 516.936768,46.605137 
	C515.745483,49.595329 516.300903,52.904118 520.087585,53.706402 
	C523.478638,54.424870 526.992615,54.264629 526.963867,49.167072 
	C526.945801,45.960690 528.886047,44.816681 531.854675,44.922901 
	C535.464294,45.052067 537.224609,47.204266 537.889160,50.476295 
	C538.487061,53.420235 537.317383,55.204308 534.336060,56.006245 
	C530.160583,57.129406 525.982300,58.297432 521.914246,59.751255 
	C516.084595,61.834595 513.435303,66.025787 514.376526,71.098801 
	C515.468567,76.985252 519.999023,81.222679 525.891846,80.716278 
	C529.555969,80.401382 533.061829,78.458534 536.694580,77.446991 
	C537.954590,77.096130 539.382629,77.349182 541.095459,77.870064 
M683.301514,64.684433 
	C677.205994,71.650513 669.347351,72.924347 663.523621,67.890289 
	C660.198486,65.016052 660.542114,62.456619 664.681458,61.006943 
	C669.551880,59.301205 674.544861,57.948608 679.454468,56.350178 
	C687.989502,53.571430 688.828735,50.353817 682.778442,43.485764 
	C681.809753,42.386066 680.559937,41.451061 679.279297,40.722397 
	C670.136292,35.520103 659.131653,38.164658 652.725769,47.031887 
	C646.622437,55.480392 648.131775,69.332932 655.917908,76.328865 
	C663.112366,82.793175 676.502625,82.717278 683.403625,75.615662 
	C685.657776,73.295967 687.028748,69.712952 687.785339,66.470123 
	C688.398682,63.841465 686.647400,62.346912 683.301514,64.684433 
M505.099274,42.501038 
	C505.099274,35.407192 505.099274,28.313349 505.099274,20.423300 
	C500.920044,21.804062 497.343536,22.985687 493.767029,24.167315 
	C498.147949,25.947630 498.134247,29.136509 498.091827,32.651596 
	C497.957214,43.800217 498.075867,54.951637 498.025360,66.101654 
	C498.005371,70.519966 499.476807,75.594711 493.505219,77.639015 
	C498.931915,77.639015 504.358612,77.639015 509.785309,77.639015 
	C505.383148,75.781174 504.977051,72.391960 505.051453,68.463005 
	C505.208862,60.144905 505.099335,51.821758 505.099274,42.501038 
M567.983459,49.568588 
	C567.983459,46.632851 567.983459,43.697113 567.983459,40.225819 
	C563.406982,40.903030 559.421509,41.492790 555.436035,42.082546 
	C555.378418,42.551289 555.320801,43.020027 555.263245,43.488770 
	C560.335144,44.287960 561.314270,47.459286 561.088440,51.826965 
	C560.796631,57.471325 560.872803,63.147648 561.068237,68.800606 
	C561.262085,74.410828 564.029236,77.565598 569.185181,78.658165 
	C574.555542,79.796158 580.188721,77.517097 582.769043,72.874939 
	C581.720459,73.209724 580.981018,73.509262 580.213074,73.681297 
	C571.483337,75.636932 568.066589,72.946541 567.990540,64.029335 
	C567.952271,59.535255 567.983521,55.040585 567.983459,49.568588 
M593.711731,62.456139 
	C593.711731,55.214947 593.711731,47.973751 593.711731,40.259686 
	C589.247131,40.915215 585.247253,41.502506 581.247375,42.089798 
	C581.170044,42.502960 581.092773,42.916119 581.015442,43.329277 
	C586.201477,44.360977 587.090942,47.742176 586.960083,52.225174 
	C586.704102,60.994278 586.884888,69.776123 586.884888,78.821953 
	C591.410767,77.977547 595.371826,77.238525 599.332886,76.499504 
	C593.590515,74.572815 593.327515,70.435730 593.702087,65.924179 
	C593.770508,65.100082 593.711670,64.265419 593.711731,62.456139 
z"/>
<path fill="#FFFDFC" opacity="1.000000" stroke="none" 
	d="
M363.191223,381.904602 
	C346.432709,346.676483 329.674194,311.448364 312.563477,275.479889 
	C311.127228,278.099213 310.005920,280.052368 308.968842,282.049255 
	C292.435577,313.884308 275.814240,345.674347 259.487823,377.615143 
	C256.843506,382.788452 253.492111,384.845093 247.769958,384.757233 
	C224.278076,384.396545 200.781403,384.348114 177.286575,384.173859 
	C176.136017,384.165344 174.986221,384.053375 172.533585,383.917297 
	C219.139099,292.203094 265.438141,201.091949 312.298065,108.877121 
	C318.029785,120.430588 323.161438,130.803238 328.318298,141.163315 
	C340.531921,165.700241 352.808868,190.205765 364.964020,214.771606 
	C377.552856,240.213882 390.011444,265.720581 402.558472,291.183563 
	C412.699860,311.764404 422.992371,332.271515 433.010315,352.912079 
	C437.866241,362.916962 442.246246,373.152863 446.601929,383.659424 
	C446.177032,384.096619 445.991943,384.158569 445.351013,384.200806 
	C418.595703,384.409729 392.296265,384.638367 365.837830,384.620178 
	C364.849670,383.550415 364.020447,382.727509 363.191223,381.904602 
z"/>
<path fill="#F3BA9F" opacity="1.000000" stroke="none" 
	d="
M362.991486,382.263947 
	C364.020447,382.727509 364.849670,383.550415 365.888489,384.980469 
	C366.354584,386.199799 366.544220,386.851196 366.877167,387.418488 
	C380.008942,409.791534 393.154877,432.156281 406.292969,454.525665 
	C406.856720,455.485504 407.364197,456.478333 408.102814,457.831116 
	C409.460968,456.008728 410.039520,455.410004 410.414581,454.703278 
	C421.950195,432.965271 433.495758,411.232269 444.918823,389.435089 
	C445.697266,387.949738 445.532837,385.970215 445.806885,384.220520 
	C445.991943,384.158569 446.177032,384.096619 446.654419,384.017700 
	C468.396362,384.000763 489.846039,384.000763 512.352478,384.000763 
	C511.637329,386.389404 511.370178,388.445831 510.458313,390.159058 
	C477.481506,452.115509 444.447266,514.041443 411.399658,575.960205 
	C410.650391,577.364197 409.657043,578.637878 408.215851,580.824707 
	C371.717560,515.128113 335.663818,450.231812 299.087982,384.395721 
	C301.808167,384.215057 303.508301,384.006866 305.208771,384.003967 
	C322.364532,383.974670 339.520630,384.023926 356.675812,383.914398 
	C358.717102,383.901398 360.753235,383.073456 362.991486,382.263947 
z"/>
<path fill="#FAEEE6" opacity="1.000000" stroke="none" 
	d="
M398.554749,69.631149 
	C399.546753,71.502609 400.758057,73.297707 401.446350,75.274895 
	C401.842682,76.413422 401.392822,77.846504 401.323883,79.146996 
	C400.217712,78.644760 398.714111,78.440460 398.075104,77.588020 
	C395.488525,74.137611 393.196594,70.467918 390.733246,66.922684 
	C389.911560,65.740082 388.902374,64.687752 387.978882,63.575878 
	C387.393829,63.548485 386.808746,63.521095 386.223694,63.493706 
	C385.023132,70.724709 383.822601,77.955711 382.622040,85.186722 
	C381.906738,85.089996 381.191406,84.993271 380.476105,84.896545 
	C377.012238,77.611725 384.182129,70.332985 380.887756,61.415516 
	C375.175995,67.999344 370.020508,73.941948 364.865051,79.884552 
	C364.332336,79.474548 363.799622,79.064537 363.266907,78.654533 
	C366.893616,73.413315 370.520355,68.172104 374.147064,62.930889 
	C373.617279,62.307384 373.087494,61.683884 372.557709,61.060379 
	C366.896912,63.825329 361.236145,66.590279 355.575378,69.355225 
	C355.147797,68.559189 354.720215,67.763145 354.292633,66.967110 
	C361.013000,62.682709 367.733337,58.398304 374.453674,54.113903 
	C374.377502,53.438843 374.301331,52.763786 374.225189,52.088726 
	C365.284729,51.400761 356.344299,50.712795 347.403870,50.024830 
	C347.468719,49.277878 347.533600,48.530922 347.598450,47.783970 
	C356.036224,48.242413 364.473999,48.700859 372.911774,49.159306 
	C373.152130,48.657669 373.392487,48.156029 373.632843,47.654392 
	C372.313538,46.210049 371.190704,44.493664 369.638123,43.372272 
	C364.942749,39.980885 359.956238,36.982594 355.366089,33.462181 
	C354.130737,32.514709 353.902832,30.253675 353.212463,28.595617 
	C354.966797,28.771904 357.012268,28.435528 358.414490,29.231838 
	C361.279175,30.858635 363.672241,33.305931 366.510315,34.993568 
	C368.001923,35.880527 370.022827,35.877369 371.804718,36.276169 
	C371.555420,34.432507 371.730194,32.386795 370.968140,30.787434 
	C369.403290,27.503002 367.343140,24.453802 365.474701,21.314997 
	C363.984985,18.812382 363.085449,16.058966 366.208557,14.421689 
	C369.790558,12.543843 370.692871,15.895107 371.807098,18.203440 
	C374.116028,22.986828 376.216583,27.872831 378.606476,32.613964 
	C379.425964,34.239670 380.853149,35.559029 382.002716,37.018345 
	C382.569611,36.948540 383.136475,36.878738 383.703369,36.808937 
	C384.417816,33.219063 385.216187,29.643202 385.818573,26.034622 
	C386.254181,23.424805 386.178345,20.705879 386.841400,18.169130 
	C387.116974,17.114891 388.722076,16.408171 389.722626,15.543432 
	C390.201477,16.650227 391.193634,17.818232 391.070251,18.853201 
	C390.539734,23.301672 389.540161,27.694513 389.019104,32.143650 
	C388.836609,33.701859 389.537170,35.363495 389.834503,36.977898 
	C391.198303,35.965740 392.752380,35.130413 393.889221,33.907310 
	C396.940430,30.624641 399.678772,27.042477 402.833466,23.869677 
	C403.864105,22.833126 405.794006,22.690704 407.312622,22.139351 
	C407.480988,24.108055 408.486237,26.583286 407.659302,27.949572 
	C405.273682,31.890991 402.044708,35.311211 399.367950,39.092590 
	C398.331879,40.556248 397.889526,42.440197 396.623840,45.445316 
	C404.626953,44.425697 411.221680,43.585514 417.816376,42.745327 
	C418.498016,43.674141 419.179657,44.602955 419.861298,45.531769 
	C418.707977,45.700390 417.542938,45.812214 416.403503,46.047958 
	C412.509064,46.853691 408.582947,47.556973 404.759491,48.623993 
	C403.600922,48.947327 402.735962,50.322773 401.736511,51.216335 
	C402.838867,51.995964 403.855591,53.233337 405.061584,53.458935 
	C407.496246,53.914360 410.078247,53.578255 412.515259,54.026512 
	C414.584961,54.407211 416.536316,55.431320 418.540039,56.170738 
	C418.463531,56.883034 418.387024,57.595329 418.310547,58.307629 
	C416.441437,58.454735 414.506958,58.980553 412.716675,58.671398 
	C408.793243,57.993877 404.965546,56.773384 401.049927,56.032974 
	C399.751129,55.787376 398.302948,56.331879 396.923096,56.515160 
	C397.451996,57.971756 397.573090,59.864220 398.581818,60.808029 
	C402.538727,64.510254 406.775635,67.913322 410.908539,71.427498 
	C410.530609,71.818657 410.152679,72.209816 409.774780,72.600975 
	C406.923401,70.736351 404.072021,68.871727 400.383423,66.820122 
	C399.215698,67.632484 398.885223,68.631813 398.554749,69.631149 
M397.620331,46.321384 
	C393.933685,46.246765 395.446411,44.252796 396.459595,42.800247 
	C399.786591,38.030472 403.365173,33.431465 406.561157,28.578527 
	C407.289001,27.473320 406.867706,25.611357 406.975311,24.097704 
	C405.531372,24.380699 403.574707,24.166229 402.733154,25.033634 
	C399.267944,28.605402 396.200348,32.558956 392.860443,36.258255 
	C391.579865,37.676582 389.961884,38.790264 387.513580,40.884521 
	C387.133148,31.661282 391.203888,24.421984 389.996796,16.848431 
	C389.334412,16.742180 388.671997,16.635931 388.009583,16.529680 
	C386.658661,25.098614 385.307770,33.667549 383.956848,42.236481 
	C383.387421,42.208916 382.817993,42.181351 382.248566,42.153790 
	C378.659149,34.503868 375.193024,26.791565 371.380707,19.254391 
	C370.576843,17.665129 368.503754,16.717855 367.015503,15.474765 
	C366.787720,17.491507 365.751190,19.884441 366.481903,21.455339 
	C368.790955,26.419460 371.860596,31.023752 374.418091,35.881966 
	C375.220367,37.406025 375.333313,39.292938 375.761810,41.013763 
	C375.365936,41.223232 374.970062,41.432701 374.574188,41.642174 
	C368.052032,37.021397 361.529907,32.400620 355.007782,27.779844 
	C354.498077,28.381437 353.988373,28.983028 353.478668,29.584620 
	C354.586792,30.996378 355.450897,32.742729 356.846436,33.760319 
	C362.091187,37.584644 367.555084,41.107250 372.832001,44.889252 
	C374.264008,45.915588 375.327332,47.456379 376.559875,48.761047 
	C376.338959,49.206463 376.118042,49.651882 375.897095,50.097298 
	C367.136963,49.607052 358.376831,49.116802 349.616699,48.626553 
	C355.595123,50.019360 361.659210,50.349903 367.698364,50.936924 
	C370.359467,51.195583 372.969910,51.975441 375.603333,52.518669 
	C373.572571,54.437714 371.746979,56.657875 369.467133,58.211369 
	C365.100983,61.186481 360.476624,63.782669 355.959412,66.536095 
	C356.246399,67.041313 356.533417,67.546532 356.820404,68.051743 
	C358.395325,67.342995 360.049011,66.768539 361.530182,65.899902 
	C365.694672,63.457623 369.808838,60.927288 373.902039,58.366470 
	C376.467255,56.761616 378.570038,56.180027 378.963837,60.135204 
	C380.510529,59.907021 381.865082,59.707184 383.481842,59.468662 
	C383.623993,67.771370 379.926178,75.249420 380.360748,83.000259 
	C381.078430,83.073105 381.796112,83.145958 382.513763,83.218803 
	C383.538177,75.400383 384.562592,67.581963 385.776245,58.319141 
	C391.044312,66.121918 395.374603,72.535667 399.704865,78.949417 
	C400.260376,78.609009 400.815918,78.268593 401.371429,77.928185 
	C400.528687,76.065498 399.782074,74.151634 398.823395,72.350655 
	C396.760956,68.476112 392.124786,65.327057 395.597595,59.949768 
	C395.876373,59.518055 395.234711,58.413403 394.899658,57.676548 
	C392.820160,53.103447 394.042175,50.376392 398.771027,49.300812 
	C403.803894,48.156078 408.864288,47.130928 413.888153,45.949169 
	C414.925262,45.705212 415.854156,45.001266 416.832947,44.509335 
	C416.688171,44.116592 416.543396,43.723850 416.398621,43.331108 
	C410.384369,44.297260 404.370148,45.263412 397.620331,46.321384 
M372.973114,66.511192 
	C371.165100,68.904846 369.357056,71.298500 367.549011,73.692154 
	C368.008270,74.032295 368.467499,74.372444 368.926758,74.712593 
	C371.815552,70.952965 374.704346,67.193336 377.593140,63.433704 
	C377.183411,63.103180 376.773651,62.772652 376.363922,62.442127 
	C375.376373,63.618637 374.388824,64.795143 372.973114,66.511192 
M398.872894,63.800602 
	C399.283936,63.875801 399.694977,63.950996 400.106049,64.026192 
	C400.089813,63.731033 400.073578,63.435879 400.057312,63.140717 
	C399.609955,63.240086 399.162567,63.339458 398.872894,63.800602 
M405.923401,69.469543 
	C405.923401,69.469543 405.977417,69.412918 405.923401,69.469543 
M364.528107,77.924164 
	C364.528107,77.924164 364.587402,77.979050 364.528107,77.924164 
M371.500000,35.999996 
	C371.366669,36.199993 371.233337,36.399994 371.100006,36.599998 
	C371.399994,36.566666 371.700012,36.533333 371.500000,35.999996 
z"/>
<path fill="#FCF5F1" opacity="1.000000" stroke="none" 
	d="
M452.779449,28.488319 
	C440.607025,35.798122 441.474213,63.104340 453.635193,72.119934 
	C462.942749,79.020126 477.231781,76.314461 482.972717,66.216179 
	C483.801666,64.758064 484.632385,63.300953 485.462250,61.843380 
	C485.925781,61.995407 486.389313,62.147434 486.852844,62.299461 
	C486.517578,65.796043 486.313568,69.313606 485.759766,72.775223 
	C485.611389,73.702827 484.556335,74.894020 483.646576,75.229454 
	C471.371887,79.755356 458.937927,81.347557 447.182831,74.211075 
	C436.925629,67.983963 433.184967,56.848034 436.023743,44.167122 
	C438.500549,33.103168 447.154266,24.563848 458.580627,23.157251 
	C464.238037,22.460819 470.240112,22.690134 475.833832,23.787420 
	C484.342163,25.456436 485.905823,28.901426 483.581177,39.378349 
	C476.633331,25.217411 466.354584,22.003317 452.779449,28.488319 
z"/>
<path fill="#DE8250" opacity="1.000000" stroke="none" 
	d="
M601.982666,57.788162 
	C604.415161,43.170948 612.363770,38.117985 631.843994,38.840427 
	C631.459778,34.516857 634.348145,29.698372 628.616455,26.511227 
	C628.135986,26.244036 628.614441,23.650644 629.174561,22.368261 
	C629.453735,21.729164 630.918396,21.585869 631.861816,21.262197 
	C642.854309,17.490973 643.080383,17.700993 643.000488,29.055063 
	C642.913879,41.366585 643.019104,53.679394 642.950745,65.991142 
	C642.933105,69.162308 643.179810,71.666824 646.845825,73.091545 
	C649.874390,74.268547 649.579895,77.158432 646.788330,78.165382 
	C642.929871,79.557137 638.727539,80.175774 634.618896,80.578880 
	C633.453125,80.693260 632.100647,78.905067 630.699524,77.892342 
	C611.110291,83.805481 600.197693,76.425591 601.982666,57.788162 
M628.690796,73.744064 
	C619.552795,75.119347 614.986206,73.421822 612.305969,67.076111 
	C609.880066,61.332493 609.923279,55.357311 612.441833,49.623035 
	C614.770996,44.319965 619.809692,42.021271 626.112732,42.981770 
	C631.117737,43.744465 633.963135,47.013138 634.364319,53.217808 
	C634.696838,58.360653 634.545715,63.535442 634.586121,68.696259 
	C634.610229,71.779793 634.590515,74.863663 634.590515,78.549965 
	C638.952026,77.732468 642.830750,77.005455 646.709473,76.278450 
	C641.354004,74.921806 640.867859,71.353683 640.931702,67.127045 
	C641.064941,58.301033 640.971802,49.471607 640.971741,40.643581 
	C640.971680,34.206150 640.971741,27.768717 640.971741,20.688570 
	C637.001770,21.977749 633.602600,23.081558 629.930054,24.274149 
	C634.960938,27.631805 636.076599,33.396202 633.905457,43.088169 
	C630.932251,42.260620 627.989319,40.864456 624.980530,40.703842 
	C611.869019,40.003925 603.112183,49.445011 603.947998,63.259972 
	C604.333069,69.624054 606.847046,74.888344 613.287231,77.295593 
	C619.501587,79.618477 625.336487,79.331833 630.672119,73.953354 
	C630.282043,73.780479 629.892029,73.607605 628.690796,73.744064 
M625.253906,72.024727 
	C630.047791,71.542465 632.390320,69.049896 632.119324,64.081253 
	C631.929138,60.593792 632.151428,57.085938 632.063477,53.590366 
	C631.880920,46.337059 624.907349,42.558384 618.609375,46.253895 
	C614.046814,48.931110 611.698486,56.483837 613.301697,63.324833 
	C614.604675,68.884773 618.075500,71.609039 625.253906,72.024727 
z"/>
<path fill="#DD8352" opacity="1.000000" stroke="none" 
	d="
M540.914673,77.598228 
	C539.382629,77.349182 537.954590,77.096130 536.694580,77.446991 
	C533.061829,78.458534 529.555969,80.401382 525.891846,80.716278 
	C519.999023,81.222679 515.468567,76.985252 514.376526,71.098801 
	C513.435303,66.025787 516.084595,61.834595 521.914246,59.751255 
	C525.982300,58.297432 530.160583,57.129406 534.336060,56.006245 
	C537.317383,55.204308 538.487061,53.420235 537.889160,50.476295 
	C537.224609,47.204266 535.464294,45.052067 531.854675,44.922901 
	C528.886047,44.816681 526.945801,45.960690 526.963867,49.167072 
	C526.992615,54.264629 523.478638,54.424870 520.087585,53.706402 
	C516.300903,52.904118 515.745483,49.595329 516.936768,46.605137 
	C517.791321,44.460011 519.573486,41.738007 521.508179,41.156055 
	C526.335449,39.703960 531.578186,38.300297 536.486023,38.742668 
	C545.092896,39.518471 548.013489,42.929733 549.046448,51.530430 
	C549.698181,56.957199 549.397095,62.496250 549.996765,67.932716 
	C550.183533,69.625465 551.795227,71.249702 552.994263,72.708321 
	C553.695740,73.561630 555.665649,74.025116 555.666199,74.665108 
	C555.667236,75.975357 555.069031,77.669617 554.110718,78.529160 
	C550.443359,81.818367 545.041321,81.422852 540.914673,77.598228 
M546.258240,47.732410 
	C542.122375,40.249535 528.933533,37.869232 521.847900,43.333153 
	C519.046326,45.493549 517.833374,48.095131 519.726685,51.886089 
	C521.244080,51.739731 522.803101,51.589355 524.249878,51.449810 
	C525.667236,42.801632 530.305115,39.884087 536.136475,44.001827 
	C538.055969,45.357300 539.797668,48.164795 540.036011,50.472004 
	C540.704163,56.941097 540.133423,63.544804 540.903381,69.993698 
	C541.243225,72.840416 543.011230,76.330933 545.265320,77.928909 
	C548.089050,79.930710 551.488770,78.500854 554.174500,75.067131 
	C548.109558,75.758919 547.267029,72.097900 547.134827,67.917290 
	C546.929749,61.436611 546.804199,54.953426 546.258240,47.732410 
M530.330688,78.076012 
	C531.729980,77.389832 533.129211,76.703651 535.808838,75.389618 
	C529.982117,74.630043 524.645325,75.632584 523.543762,69.229424 
	C522.216187,61.512325 529.627136,62.267628 533.120178,58.994198 
	C528.713928,59.982738 524.354980,61.040623 520.441833,62.992306 
	C515.626953,65.393684 514.868958,73.108467 519.384155,75.942940 
	C522.151245,77.679962 526.128906,77.488510 530.330688,78.076012 
M526.276062,66.071709 
	C526.970642,68.045784 527.313782,71.424995 528.432007,71.704643 
	C530.842468,72.307465 534.681519,72.250351 536.042114,70.748039 
	C537.832336,68.771393 537.801636,65.145493 538.553894,62.228775 
	C537.961060,61.821934 537.368225,61.415089 536.775452,61.008247 
	C533.399536,62.467434 530.023682,63.926620 526.276062,66.071709 
z"/>
<path fill="#DF723F" opacity="1.000000" stroke="none" 
	d="
M683.548401,64.425171 
	C686.647400,62.346912 688.398682,63.841465 687.785339,66.470123 
	C687.028748,69.712952 685.657776,73.295967 683.403625,75.615662 
	C676.502625,82.717278 663.112366,82.793175 655.917908,76.328865 
	C648.131775,69.332932 646.622437,55.480392 652.725769,47.031887 
	C659.131653,38.164658 670.136292,35.520103 679.279297,40.722397 
	C680.559937,41.451061 681.809753,42.386066 682.778442,43.485764 
	C688.828735,50.353817 687.989502,53.571430 679.454468,56.350178 
	C674.544861,57.948608 669.551880,59.301205 664.681458,61.006943 
	C660.542114,62.456619 660.198486,65.016052 663.523621,67.890289 
	C669.347351,72.924347 677.205994,71.650513 683.548401,64.425171 
M657.728943,50.691795 
	C660.172302,45.746849 663.822815,42.907593 669.655518,43.732670 
	C674.566589,44.427387 676.431824,47.824535 677.623291,52.600880 
	C671.384827,54.661762 665.279419,56.678699 659.173950,58.695637 
	C659.332031,59.179604 659.490051,59.663567 659.648071,60.147530 
	C668.002197,57.604370 676.356323,55.061211 684.733887,52.510906 
	C681.374817,42.626953 674.805542,38.873386 665.361450,40.984474 
	C656.188477,43.034943 649.949707,52.425480 651.277100,62.184208 
	C652.674927,72.460678 660.063232,79.138283 669.743530,78.874290 
	C678.092468,78.646606 685.251404,72.866402 685.559814,66.771317 
	C682.675964,68.478226 679.667419,70.918541 676.226318,72.164070 
	C668.002869,75.140663 657.234802,69.306755 656.096191,61.183022 
	C655.659851,58.069500 656.994080,54.707840 657.728943,50.691795 
z"/>
<path fill="#FDF9F7" opacity="1.000000" stroke="none" 
	d="
M505.099274,43.000858 
	C505.099335,51.821758 505.208862,60.144905 505.051453,68.463005 
	C504.977051,72.391960 505.383148,75.781174 509.785309,77.639015 
	C504.358612,77.639015 498.931915,77.639015 493.505219,77.639015 
	C499.476807,75.594711 498.005371,70.519966 498.025360,66.101654 
	C498.075867,54.951637 497.957214,43.800217 498.091827,32.651596 
	C498.134247,29.136509 498.147949,25.947630 493.767029,24.167315 
	C497.343536,22.985687 500.920044,21.804062 505.099274,20.423300 
	C505.099274,28.313349 505.099274,35.407192 505.099274,43.000858 
z"/>
<path fill="#FCF5F1" opacity="1.000000" stroke="none" 
	d="
M567.983398,50.057388 
	C567.983521,55.040585 567.952271,59.535255 567.990540,64.029335 
	C568.066589,72.946541 571.483337,75.636932 580.213074,73.681297 
	C580.981018,73.509262 581.720459,73.209724 582.769043,72.874939 
	C580.188721,77.517097 574.555542,79.796158 569.185181,78.658165 
	C564.029236,77.565598 561.262085,74.410828 561.068237,68.800606 
	C560.872803,63.147648 560.796631,57.471325 561.088440,51.826965 
	C561.314270,47.459286 560.335144,44.287960 555.263245,43.488770 
	C555.320801,43.020027 555.378418,42.551289 555.436035,42.082546 
	C559.421509,41.492790 563.406982,40.903030 567.983459,40.225819 
	C567.983459,43.697113 567.983459,46.632851 567.983398,50.057388 
z"/>
<path fill="#FCF5F1" opacity="1.000000" stroke="none" 
	d="
M593.711670,62.945889 
	C593.711670,64.265419 593.770508,65.100082 593.702087,65.924179 
	C593.327515,70.435730 593.590515,74.572815 599.332886,76.499504 
	C595.371826,77.238525 591.410767,77.977547 586.884888,78.821953 
	C586.884888,69.776123 586.704102,60.994278 586.960083,52.225174 
	C587.090942,47.742176 586.201477,44.360977 581.015442,43.329277 
	C581.092773,42.916119 581.170044,42.502960 581.247375,42.089798 
	C585.247253,41.502506 589.247131,40.915215 593.711731,40.259686 
	C593.711731,47.973751 593.711731,55.214947 593.711670,62.945889 
z"/>
<path fill="#E75C2B" opacity="1.000000" stroke="none" 
	d="
M445.351044,384.200806 
	C445.532837,385.970215 445.697266,387.949738 444.918823,389.435089 
	C433.495758,411.232269 421.950195,432.965271 410.414581,454.703278 
	C410.039520,455.410004 409.460968,456.008728 408.102814,457.831116 
	C407.364197,456.478333 406.856720,455.485504 406.292969,454.525665 
	C393.154877,432.156281 380.008942,409.791534 366.877167,387.418488 
	C366.544220,386.851196 366.354584,386.199799 366.047455,385.227295 
	C392.296265,384.638367 418.595703,384.409729 445.351044,384.200806 
z"/>
<path fill="#FCF3EF" opacity="1.000000" stroke="none" 
	d="
M397.988129,46.275475 
	C404.370148,45.263412 410.384369,44.297260 416.398621,43.331108 
	C416.543396,43.723850 416.688171,44.116592 416.832947,44.509335 
	C415.854156,45.001266 414.925262,45.705212 413.888153,45.949169 
	C408.864288,47.130928 403.803894,48.156078 398.771027,49.300812 
	C394.042175,50.376392 392.820160,53.103447 394.899658,57.676548 
	C395.234711,58.413403 395.876373,59.518055 395.597595,59.949768 
	C392.124786,65.327057 396.760956,68.476112 398.823395,72.350655 
	C399.782074,74.151634 400.528687,76.065498 401.371429,77.928185 
	C400.815918,78.268593 400.260376,78.609009 399.704865,78.949417 
	C395.374603,72.535667 391.044312,66.121918 385.776245,58.319141 
	C384.562592,67.581963 383.538177,75.400383 382.513763,83.218803 
	C381.796112,83.145958 381.078430,83.073105 380.360748,83.000259 
	C379.926178,75.249420 383.623993,67.771370 383.481842,59.468662 
	C381.865082,59.707184 380.510529,59.907021 378.963837,60.135204 
	C378.570038,56.180027 376.467255,56.761616 373.902039,58.366470 
	C369.808838,60.927288 365.694672,63.457623 361.530182,65.899902 
	C360.049011,66.768539 358.395325,67.342995 356.820404,68.051743 
	C356.533417,67.546532 356.246399,67.041313 355.959412,66.536095 
	C360.476624,63.782669 365.100983,61.186481 369.467133,58.211369 
	C371.746979,56.657875 373.572571,54.437714 375.603333,52.518673 
	C372.969910,51.975441 370.359467,51.195583 367.698364,50.936924 
	C361.659210,50.349903 355.595123,50.019360 349.616699,48.626553 
	C358.376831,49.116802 367.136963,49.607052 375.897095,50.097298 
	C376.118042,49.651882 376.338959,49.206463 376.559875,48.761047 
	C375.327332,47.456379 374.264008,45.915588 372.832001,44.889252 
	C367.555084,41.107250 362.091187,37.584644 356.846436,33.760319 
	C355.450897,32.742729 354.586792,30.996378 353.478668,29.584620 
	C353.988373,28.983028 354.498077,28.381437 355.007782,27.779844 
	C361.529907,32.400620 368.052032,37.021397 374.574188,41.642174 
	C374.970062,41.432701 375.365936,41.223232 375.761810,41.013763 
	C375.333313,39.292938 375.220367,37.406025 374.418091,35.881966 
	C371.860596,31.023752 368.790955,26.419460 366.481903,21.455339 
	C365.751190,19.884441 366.787720,17.491507 367.015503,15.474764 
	C368.503754,16.717855 370.576843,17.665129 371.380707,19.254391 
	C375.193024,26.791565 378.659149,34.503868 382.248566,42.153790 
	C382.817993,42.181351 383.387421,42.208916 383.956848,42.236481 
	C385.307770,33.667549 386.658661,25.098614 388.009583,16.529680 
	C388.671997,16.635931 389.334412,16.742180 389.996796,16.848431 
	C391.203888,24.421984 387.133148,31.661282 387.513580,40.884521 
	C389.961884,38.790264 391.579865,37.676582 392.860443,36.258255 
	C396.200348,32.558956 399.267944,28.605402 402.733154,25.033634 
	C403.574707,24.166229 405.531372,24.380699 406.975311,24.097704 
	C406.867706,25.611357 407.289001,27.473320 406.561157,28.578527 
	C403.365173,33.431465 399.786591,38.030472 396.459595,42.800247 
	C395.446411,44.252796 393.933685,46.246765 397.988129,46.275475 
z"/>
<path fill="#FCF3EF" opacity="1.000000" stroke="none" 
	d="
M373.187195,66.241425 
	C374.388824,64.795143 375.376373,63.618637 376.363922,62.442127 
	C376.773651,62.772652 377.183411,63.103180 377.593140,63.433704 
	C374.704346,67.193336 371.815552,70.952965 368.926758,74.712593 
	C368.467499,74.372444 368.008270,74.032295 367.549011,73.692154 
	C369.357056,71.298500 371.165100,68.904846 373.187195,66.241425 
z"/>
<path fill="#FCF3EF" opacity="1.000000" stroke="none" 
	d="
M398.794067,63.619713 
	C399.162567,63.339458 399.609955,63.240086 400.057312,63.140720 
	C400.073578,63.435879 400.089813,63.731033 400.106018,64.026192 
	C399.694977,63.950996 399.283936,63.875801 398.794067,63.619713 
z"/>
<path fill="#FCF3EF" opacity="1.000000" stroke="none" 
	d="
M405.950409,69.441231 
	C405.977417,69.412918 405.923401,69.469543 405.950409,69.441231 
z"/>
<path fill="#FCF3EF" opacity="1.000000" stroke="none" 
	d="
M364.557739,77.951607 
	C364.587402,77.979050 364.528107,77.924164 364.557739,77.951607 
z"/>
<path fill="#E95A29" opacity="1.000000" stroke="none" 
	d="
M399.083160,69.071716 
	C398.885223,68.631813 399.215698,67.632484 399.973145,66.911850 
	C400.137299,67.631126 399.874420,68.071701 399.083160,69.071716 
z"/>
<path fill="#E95A29" opacity="1.000000" stroke="none" 
	d="
M371.750000,36.250000 
	C371.700012,36.533333 371.399994,36.566666 371.100006,36.599998 
	C371.233337,36.399994 371.366669,36.199993 371.750000,36.250000 
z"/>
<path fill="#FEFDFB" opacity="1.000000" stroke="none" 
	d="
M630.276550,74.268707 
	C625.336487,79.331833 619.501587,79.618477 613.287231,77.295593 
	C606.847046,74.888344 604.333069,69.624054 603.947998,63.259972 
	C603.112183,49.445011 611.869019,40.003925 624.980530,40.703842 
	C627.989319,40.864456 630.932251,42.260620 633.905273,43.089092 
	C636.076599,33.396202 634.960938,27.631805 629.930054,24.274149 
	C633.602600,23.081558 637.001770,21.977749 640.971741,20.688570 
	C640.971741,27.768717 640.971680,34.206150 640.971741,40.643581 
	C640.971802,49.471607 641.064941,58.301033 640.931702,67.127045 
	C640.867859,71.353683 641.354004,74.921806 646.709473,76.278450 
	C642.830750,77.005455 638.952026,77.732468 634.590515,78.549965 
	C634.590515,74.863663 634.610229,71.779793 634.586121,68.696259 
	C634.545715,63.535442 634.696838,58.360653 634.364319,53.217808 
	C633.963135,47.013138 631.117737,43.744465 626.112732,42.981770 
	C619.809692,42.021271 614.770996,44.319965 612.441833,49.623035 
	C609.923279,55.357311 609.880066,61.332493 612.305969,67.076111 
	C614.986206,73.421822 619.552795,75.119347 629.286987,73.800682 
	C630.014343,73.994438 630.145447,74.131569 630.276550,74.268707 
z"/>
<path fill="#E95A29" opacity="1.000000" stroke="none" 
	d="
M624.840942,72.041290 
	C618.075500,71.609039 614.604675,68.884773 613.301697,63.324833 
	C611.698486,56.483837 614.046814,48.931110 618.609375,46.253895 
	C624.907349,42.558384 631.880920,46.337059 632.063477,53.590366 
	C632.151428,57.085938 631.929138,60.593792 632.119324,64.081253 
	C632.390320,69.049896 630.047791,71.542465 624.840942,72.041290 
z"/>
<path fill="#FEFDFB" opacity="1.000000" stroke="none" 
	d="
M629.692627,73.646019 
	C629.892029,73.607605 630.282043,73.780479 630.474365,74.111031 
	C630.145447,74.131569 630.014343,73.994438 629.692627,73.646019 
z"/>
<path fill="#FEFCFA" opacity="1.000000" stroke="none" 
	d="
M546.451660,48.101856 
	C546.804199,54.953426 546.929749,61.436611 547.134827,67.917290 
	C547.267029,72.097900 548.109558,75.758919 554.174500,75.067131 
	C551.488770,78.500854 548.089050,79.930710 545.265320,77.928909 
	C543.011230,76.330933 541.243225,72.840416 540.903381,69.993698 
	C540.133423,63.544804 540.704163,56.941097 540.036011,50.472004 
	C539.797668,48.164795 538.055969,45.357300 536.136475,44.001827 
	C530.305115,39.884087 525.667236,42.801632 524.249878,51.449810 
	C522.803101,51.589355 521.244080,51.739731 519.726685,51.886089 
	C517.833374,48.095131 519.046326,45.493549 521.847900,43.333153 
	C528.933533,37.869232 542.122375,40.249535 546.451660,48.101856 
z"/>
<path fill="#FEFAF8" opacity="1.000000" stroke="none" 
	d="
M529.946777,78.119553 
	C526.128906,77.488510 522.151245,77.679962 519.384155,75.942940 
	C514.868958,73.108467 515.626953,65.393684 520.441833,62.992306 
	C524.354980,61.040623 528.713928,59.982738 533.120178,58.994198 
	C529.627136,62.267628 522.216187,61.512325 523.543762,69.229424 
	C524.645325,75.632584 529.982117,74.630043 535.808838,75.389618 
	C533.129211,76.703651 531.729980,77.389832 529.946777,78.119553 
z"/>
<path fill="#E85C2B" opacity="1.000000" stroke="none" 
	d="
M526.461914,65.728760 
	C530.023682,63.926620 533.399536,62.467434 536.775452,61.008247 
	C537.368225,61.415089 537.961060,61.821934 538.553894,62.228775 
	C537.801636,65.145493 537.832336,68.771393 536.042114,70.748039 
	C534.681519,72.250351 530.842468,72.307465 528.432007,71.704643 
	C527.313782,71.424995 526.970642,68.045784 526.461914,65.728760 
z"/>
<path fill="#FBF3EE" opacity="1.000000" stroke="none" 
	d="
M657.625183,51.075527 
	C656.994080,54.707840 655.659851,58.069500 656.096191,61.183022 
	C657.234802,69.306755 668.002869,75.140663 676.226318,72.164070 
	C679.667419,70.918541 682.675964,68.478226 685.559814,66.771317 
	C685.251404,72.866402 678.092468,78.646606 669.743530,78.874290 
	C660.063232,79.138283 652.674927,72.460678 651.277100,62.184208 
	C649.949707,52.425480 656.188477,43.034943 665.361450,40.984474 
	C674.805542,38.873386 681.374817,42.626953 684.733887,52.510906 
	C676.356323,55.061211 668.002197,57.604370 659.648071,60.147530 
	C659.490051,59.663567 659.332031,59.179604 659.173950,58.695637 
	C665.279419,56.678699 671.384827,54.661762 677.623291,52.600880 
	C676.431824,47.824535 674.566589,44.427387 669.655518,43.732670 
	C663.822815,42.907593 660.172302,45.746849 657.625183,51.075527 
z"/>
</svg>