<svg version="1.1" id="Layer_1" xmlns="http://www.w3.org/2000/svg" xmlns:xlink="http://www.w3.org/1999/xlink" x="0px" y="0px"
	 width="100%" viewBox="0 0 800 800" enable-background="new 0 0 800 800" xml:space="preserve">
<path fill="#FC4C01" opacity="1.000000" stroke="none" 
	d="
M510.000000,801.000000 
	C340.000000,801.000000 170.500000,801.000000 1.000000,801.000000 
	C1.000000,534.333313 1.000000,267.666656 1.000000,1.000000 
	C267.666656,1.000000 534.333313,1.000000 801.000000,1.000000 
	C801.000000,267.666656 801.000000,534.333313 801.000000,801.000000 
	C704.166687,801.000000 607.333313,801.000000 510.000000,801.000000 
M272.079315,300.055573 
	C272.079315,300.055573 272.212311,300.157471 271.510559,300.327209 
	C271.060120,301.607025 270.609711,302.886841 270.052582,304.036835 
	C270.052582,304.036835 270.184143,304.141388 269.463928,304.214020 
	C266.653748,308.285339 263.403229,312.126678 261.130096,316.478516 
	C257.088318,324.216431 253.510727,332.207275 249.988388,340.202179 
	C247.828125,345.105499 246.131866,350.213226 244.120895,355.066986 
	C244.120895,355.066986 244.260513,355.201538 243.546509,355.298340 
	C240.151123,356.953430 239.786911,359.905487 240.072876,363.031219 
	C240.072876,363.031219 240.201752,363.156158 239.452225,363.213623 
	C238.350464,364.083038 236.782883,364.722504 236.221924,365.858887 
	C232.347260,373.708282 228.811951,381.725708 224.914047,389.562988 
	C220.955963,397.521240 216.551285,405.259216 212.670471,413.252991 
	C211.340164,415.993225 211.001846,419.215088 210.111145,422.077637 
	C210.111145,422.077637 210.244202,422.184967 209.551834,422.281189 
	C206.475830,427.950806 203.379089,433.609528 200.386642,439.322906 
	C200.241180,439.600616 201.010925,440.357666 202.247025,440.924042 
	C231.715408,440.949432 261.184448,440.888000 290.651459,441.100708 
	C294.723663,441.130127 296.755402,439.803192 298.596527,436.229492 
	C318.021667,398.524933 337.630646,360.915100 357.195618,323.282562 
	C358.295532,321.166901 359.453735,319.081543 361.034851,316.146667 
	C381.068848,357.797241 400.589417,398.380402 419.904694,439.784119 
	C418.091461,440.188690 416.279602,440.937714 414.464752,440.945099 
	C393.814850,441.028931 373.164459,440.999542 352.514221,441.000427 
	C350.727417,441.000488 348.940613,441.000427 346.002777,441.000427 
	C387.797058,516.228577 429.099731,590.571777 470.802979,665.636047 
	C472.160583,663.429321 472.993225,662.224609 473.678192,660.941223 
	C512.011047,589.120117 550.336548,517.295044 588.616516,445.445740 
	C589.345337,444.077820 589.522156,442.415833 589.253174,440.479187 
	C587.282166,440.317841 585.311462,440.020386 583.340149,440.016388 
	C565.244568,439.979889 547.139954,440.335846 529.056641,439.862579 
	C518.627991,439.589630 514.329956,435.951538 511.459137,426.029968 
	C509.584808,419.552185 504.973267,413.859802 501.502899,407.864807 
	C501.260315,407.445770 500.312561,407.434967 499.824493,407.112244 
	C499.824493,407.112244 499.733246,407.266937 499.856873,406.429962 
	C499.504852,404.680023 499.472809,402.783997 498.750854,401.202972 
	C492.181091,386.815430 485.499023,372.479065 478.817261,358.142914 
	C478.404694,357.257629 477.642212,356.541321 477.171997,355.676025 
	C474.746307,351.212097 472.500793,346.642548 469.892944,342.289246 
	C468.926636,340.676086 467.144287,339.551788 465.871521,338.088104 
	C465.871521,338.088104 465.769287,338.236420 465.863129,337.470245 
	C465.161072,336.371826 464.459015,335.273407 463.877136,334.098236 
	C463.877136,334.098236 463.794159,334.214172 463.877716,333.452454 
	C463.180786,332.351196 462.483856,331.249908 461.896729,330.089661 
	C461.896729,330.089661 461.823517,330.190491 461.907471,329.350250 
	C461.383484,326.947662 461.303467,324.329346 460.258972,322.179688 
	C455.622467,312.637146 450.855408,303.150482 445.832245,293.806641 
	C443.474915,289.421539 440.431458,285.405273 437.815033,281.143036 
	C437.815033,281.143036 437.743439,281.263763 437.847900,280.491119 
	C437.136353,279.396393 436.424805,278.301666 435.827881,277.135956 
	C435.827881,277.135956 435.756500,277.250336 435.855774,276.481445 
	C435.152435,275.381409 434.449066,274.281342 433.857941,273.112274 
	C433.857941,273.112274 433.786835,273.223175 433.877716,272.409119 
	C433.538544,269.419006 434.001404,265.980103 429.938446,265.024933 
	C429.938446,265.024933 429.838257,265.166107 429.907593,264.372467 
	C429.355560,261.041138 429.096741,257.625397 428.168427,254.402435 
	C427.252319,251.221710 425.564819,248.345001 421.421722,248.472000 
	C421.421722,248.472000 421.443909,248.412369 421.684387,247.592194 
	C421.726257,246.931656 422.005707,246.170029 421.774170,245.625839 
	C418.613739,238.197556 415.632141,230.675247 412.042542,223.456512 
	C410.661804,220.679733 407.857300,218.610916 405.815216,216.142975 
	C405.815216,216.142975 405.746643,216.261673 405.856171,215.444214 
	C405.109985,210.994843 404.680786,206.375061 399.909576,204.075577 
	C399.909576,204.075577 399.820618,204.190598 399.905762,203.367981 
	C399.432678,201.494461 399.235931,199.493851 398.442078,197.767868 
	C392.867096,185.647110 387.297119,173.519913 381.404327,161.552933 
	C380.197937,159.102966 377.634399,157.321304 375.824280,155.106247 
	C375.824280,155.106247 375.737396,155.262802 375.859802,154.426468 
	C373.991943,143.661621 368.334778,134.572205 362.715942,125.544853 
	C361.213074,123.130249 359.335693,124.149933 357.979553,126.775948 
	C354.464050,133.583298 350.212708,140.030960 346.999207,146.966965 
	C344.775513,151.766495 343.789276,157.139328 342.169098,162.128830 
	C342.169098,162.128830 342.291809,162.216415 341.570953,162.356476 
	C341.122101,163.648148 340.673248,164.939819 340.126068,166.094940 
	C340.126068,166.094940 340.259949,166.196869 339.562561,166.287430 
	C335.658783,169.289902 333.736664,173.194412 334.060211,178.043503 
	C334.060211,178.043503 334.183685,178.136520 333.500305,178.260254 
	C329.646851,184.954361 325.644958,191.568420 321.979889,198.364151 
	C317.969360,205.800491 314.096985,213.323410 310.507385,220.969620 
	C308.679901,224.862396 307.604950,229.108459 306.088501,233.039505 
	C306.088501,233.039505 306.219391,233.170944 305.501404,233.225037 
	C304.282654,234.444504 302.680054,235.462158 301.913849,236.919525 
	C299.087494,242.295654 296.643250,247.871674 293.857544,253.270462 
	C290.354492,260.059357 286.351440,266.606628 283.150391,273.529266 
	C280.992737,278.195465 279.848938,283.330475 278.152802,288.104980 
	C278.152802,288.104980 278.289459,288.222565 277.574921,288.308167 
	C276.449249,290.940613 275.323547,293.573059 274.107086,296.081818 
	C274.107086,296.081818 274.232422,296.170288 273.525604,296.334290 
	C273.078064,297.618591 272.630524,298.902893 272.079315,300.055573 
z"/>
<path fill="#FFFEFD" opacity="1.000000" stroke="none" 
	d="
M420.109955,438.963531 
	C400.589417,398.380402 381.068848,357.797241 361.034851,316.146667 
	C359.453735,319.081543 358.295532,321.166901 357.195618,323.282562 
	C337.630646,360.915100 318.021667,398.524933 298.596527,436.229492 
	C296.755402,439.803192 294.723663,441.130127 290.651459,441.100708 
	C261.184448,440.888000 231.715408,440.949432 201.880829,440.583954 
	C204.424469,434.224213 207.334320,428.204590 210.244202,422.184967 
	C210.244202,422.184967 210.111145,422.077637 210.435120,421.931274 
	C220.573318,402.241974 230.387527,382.699066 240.201752,363.156158 
	C240.201752,363.156158 240.072876,363.031219 240.398239,362.896332 
	C241.902573,360.241486 243.081543,357.721527 244.260529,355.201538 
	C244.260513,355.201538 244.120895,355.066986 244.447937,354.932800 
	C253.244705,337.912872 261.714417,321.027130 270.184143,304.141388 
	C270.184143,304.141388 270.052582,304.036835 270.373596,303.909454 
	C271.200500,302.573883 271.706421,301.365662 272.212311,300.157471 
	C272.212311,300.157471 272.079315,300.055573 272.399170,299.928955 
	C273.223511,298.591644 273.727966,297.380951 274.232422,296.170288 
	C274.232422,296.170288 274.107086,296.081818 274.428345,295.935120 
	C275.929535,293.266479 277.109497,290.744537 278.289459,288.222565 
	C278.289459,288.222565 278.152802,288.104980 278.473114,287.965057 
	C287.935425,269.607056 297.077393,251.389008 306.219391,233.170944 
	C306.219391,233.170944 306.088501,233.039505 306.416260,232.905548 
	C315.890533,214.559906 325.037109,196.348206 334.183685,178.136520 
	C334.183685,178.136520 334.060211,178.043503 334.386169,177.894882 
	C336.561371,173.896469 338.410675,170.046661 340.259949,166.196869 
	C340.259949,166.196869 340.126068,166.094940 340.439545,165.965454 
	C341.265930,164.629440 341.778870,163.422928 342.291809,162.216415 
	C342.291809,162.216415 342.169098,162.128830 342.478333,161.974396 
	C348.716583,150.232147 354.645630,138.644318 360.944977,126.332733 
	C366.226837,136.662643 370.982117,145.962723 375.737396,155.262802 
	C375.737396,155.262802 375.824280,155.106247 375.807556,155.526184 
	C383.800751,172.027603 391.810699,188.109100 399.820618,204.190598 
	C399.820618,204.190598 399.909576,204.075577 399.887024,204.471008 
	C401.825165,208.664841 403.785919,212.463242 405.746643,216.261658 
	C405.746643,216.261673 405.815216,216.142975 405.808594,216.538757 
	C411.015930,227.427139 416.229919,237.919754 421.443909,248.412369 
	C421.443909,248.412369 421.421722,248.472000 421.528137,248.835297 
	C424.369080,254.521103 427.103668,259.843597 429.838257,265.166107 
	C429.838257,265.166107 429.938446,265.024933 429.907898,265.436005 
	C431.180511,268.305786 432.483673,270.764465 433.786835,273.223175 
	C433.786835,273.223175 433.857941,273.112274 433.831360,273.477722 
	C434.455322,274.978882 435.105896,276.114624 435.756500,277.250336 
	C435.756500,277.250336 435.827881,277.135956 435.804016,277.501648 
	C436.434601,278.999481 437.089020,280.131622 437.743439,281.263763 
	C437.743439,281.263763 437.815033,281.143036 437.804138,281.540466 
	C445.803314,298.022095 453.813446,314.106293 461.823547,330.190491 
	C461.823517,330.190491 461.896729,330.089661 461.869690,330.450684 
	C462.493134,331.945862 463.143646,333.080017 463.794159,334.214172 
	C463.794159,334.214172 463.877136,334.098236 463.849152,334.466949 
	C464.470551,335.969238 465.119934,337.102844 465.769287,338.236420 
	C465.769287,338.236420 465.871521,338.088104 465.848938,338.501038 
	C466.903290,341.164398 467.950623,343.429596 469.061737,345.663025 
	C479.279297,366.200775 489.507904,386.733032 499.733246,407.266937 
	C499.733246,407.266937 499.824493,407.112244 499.804993,407.530701 
	C504.336609,417.268951 508.925293,426.570770 513.402100,435.926117 
	C514.154236,437.497833 514.422424,439.301178 514.951477,440.995911 
	C514.988770,440.994324 514.985107,440.919708 514.518311,440.948029 
	C483.354889,440.988434 452.658203,441.000519 421.786682,440.792633 
	C421.111206,440.036285 420.610565,439.499908 420.109955,438.963531 
z"/>
<path fill="#FEB79A" opacity="1.000000" stroke="none" 
	d="
M420.007324,439.373840 
	C420.610565,439.499908 421.111206,440.036285 421.747986,441.159973 
	C422.266632,442.656433 422.550751,443.623413 423.045959,444.466339 
	C438.297180,470.424286 453.565002,496.372498 468.854614,522.307861 
	C469.394684,523.223938 470.182648,523.993958 471.092438,525.127930 
	C471.897125,523.899780 472.495178,523.128052 472.946014,522.278320 
	C486.588043,496.566498 500.227539,470.853333 513.809204,445.109650 
	C514.470947,443.855316 514.605225,442.322723 514.985107,440.919708 
	C514.985107,440.919708 514.988770,440.994324 515.425598,441.000000 
	C540.560486,440.967438 565.258484,440.929260 589.956543,440.891052 
	C589.522156,442.415833 589.345337,444.077820 588.616516,445.445740 
	C550.336548,517.295044 512.011047,589.120117 473.678192,660.941223 
	C472.993225,662.224609 472.160583,663.429321 470.802979,665.636047 
	C429.099731,590.571777 387.797058,516.228577 346.002777,441.000427 
	C348.940613,441.000427 350.727417,441.000488 352.514221,441.000427 
	C373.164459,440.999542 393.814850,441.028931 414.464752,440.945099 
	C416.279602,440.937714 418.091461,440.188690 420.007324,439.373840 
z"/>
<path fill="#FA4D04" opacity="1.000000" stroke="none" 
	d="
M589.604858,440.685120 
	C565.258484,440.929260 540.560486,440.967438 515.388306,441.001587 
	C514.422424,439.301178 514.154236,437.497833 513.402100,435.926117 
	C508.925293,426.570770 504.336609,417.268951 499.739136,407.591736 
	C500.312561,407.434967 501.260315,407.445770 501.502899,407.864807 
	C504.973267,413.859802 509.584808,419.552185 511.459137,426.029968 
	C514.329956,435.951538 518.627991,439.589630 529.056641,439.862579 
	C547.139954,440.335846 565.244568,439.979889 583.340149,440.016388 
	C585.311462,440.020386 587.282166,440.317841 589.604858,440.685120 
z"/>
<path fill="#FA4D04" opacity="1.000000" stroke="none" 
	d="
M499.795044,406.848450 
	C489.507904,386.733032 479.279297,366.200775 469.061737,345.663025 
	C467.950623,343.429596 466.903290,341.164398 465.780212,338.559265 
	C467.144287,339.551788 468.926636,340.676086 469.892944,342.289246 
	C472.500793,346.642548 474.746307,351.212097 477.171997,355.676025 
	C477.642212,356.541321 478.404694,357.257629 478.817261,358.142914 
	C485.499023,372.479065 492.181091,386.815430 498.750854,401.202972 
	C499.472809,402.783997 499.504852,404.680023 499.795044,406.848450 
z"/>
<path fill="#FA4D04" opacity="1.000000" stroke="none" 
	d="
M375.798584,154.844635 
	C370.982117,145.962723 366.226837,136.662643 360.944977,126.332733 
	C354.645630,138.644318 348.716583,150.232147 342.518799,162.037964 
	C343.789276,157.139328 344.775513,151.766495 346.999207,146.966965 
	C350.212708,140.030960 354.464050,133.583298 357.979553,126.775948 
	C359.335693,124.149933 361.213074,123.130249 362.715942,125.544853 
	C368.334778,134.572205 373.991943,143.661621 375.798584,154.844635 
z"/>
<path fill="#FA4D04" opacity="1.000000" stroke="none" 
	d="
M305.860413,233.197998 
	C297.077393,251.389008 287.935425,269.607056 278.522522,288.040466 
	C279.848938,283.330475 280.992737,278.195465 283.150391,273.529266 
	C286.351440,266.606628 290.354492,260.059357 293.857544,253.270462 
	C296.643250,247.871674 299.087494,242.295654 301.913849,236.919525 
	C302.680054,235.462158 304.282654,234.444504 305.860413,233.197998 
z"/>
<path fill="#FA4D04" opacity="1.000000" stroke="none" 
	d="
M239.826981,363.184875 
	C230.387527,382.699066 220.573318,402.241974 210.484711,422.000916 
	C211.001846,419.215088 211.340164,415.993225 212.670471,413.252991 
	C216.551285,405.259216 220.955963,397.521240 224.914047,389.562988 
	C228.811951,381.725708 232.347260,373.708282 236.221924,365.858887 
	C236.782883,364.722504 238.350464,364.083038 239.826981,363.184875 
z"/>
<path fill="#FA4D04" opacity="1.000000" stroke="none" 
	d="
M333.841980,178.198395 
	C325.037109,196.348206 315.890533,214.559906 306.466919,232.983215 
	C307.604950,229.108459 308.679901,224.862396 310.507385,220.969620 
	C314.096985,213.323410 317.969360,205.800491 321.979889,198.364151 
	C325.644958,191.568420 329.646851,184.954361 333.841980,178.198395 
z"/>
<path fill="#FA4D04" opacity="1.000000" stroke="none" 
	d="
M269.824036,304.177704 
	C261.714417,321.027130 253.244705,337.912872 244.501129,355.013855 
	C246.131866,350.213226 247.828125,345.105499 249.988388,340.202179 
	C253.510727,332.207275 257.088318,324.216431 261.130096,316.478516 
	C263.403229,312.126678 266.653748,308.285339 269.824036,304.177704 
z"/>
<path fill="#FA4D04" opacity="1.000000" stroke="none" 
	d="
M399.863190,203.779297 
	C391.810699,188.109100 383.800751,172.027603 375.743591,155.588852 
	C377.634399,157.321304 380.197937,159.102966 381.404327,161.552933 
	C387.297119,173.519913 392.867096,185.647110 398.442078,197.767868 
	C399.235931,199.493851 399.432678,201.494461 399.863190,203.779297 
z"/>
<path fill="#FA4D04" opacity="1.000000" stroke="none" 
	d="
M461.865509,329.770386 
	C453.813446,314.106293 445.803314,298.022095 437.746063,281.579895 
	C440.431458,285.405273 443.474915,289.421539 445.832245,293.806641 
	C450.855408,303.150482 455.622467,312.637146 460.258972,322.179688 
	C461.303467,324.329346 461.383484,326.947662 461.865509,329.770386 
z"/>
<path fill="#FA4D04" opacity="1.000000" stroke="none" 
	d="
M421.564148,248.002289 
	C416.229919,237.919754 411.015930,227.427139 405.751709,216.577026 
	C407.857300,218.610916 410.661804,220.679733 412.042542,223.456512 
	C415.632141,230.675247 418.613739,238.197556 421.774170,245.625839 
	C422.005707,246.170029 421.726257,246.931656 421.564148,248.002289 
z"/>
<path fill="#FA4D04" opacity="1.000000" stroke="none" 
	d="
M429.872925,264.769287 
	C427.103668,259.843597 424.369080,254.521103 421.550598,248.857849 
	C425.564819,248.345001 427.252319,251.221710 428.168427,254.402435 
	C429.096741,257.625397 429.355560,261.041138 429.872925,264.769287 
z"/>
<path fill="#FA4D04" opacity="1.000000" stroke="none" 
	d="
M209.898010,422.233093 
	C207.334320,428.204590 204.424469,434.224213 201.434555,440.567688 
	C201.010925,440.357666 200.241180,439.600616 200.386642,439.322906 
	C203.379089,433.609528 206.475830,427.950806 209.898010,422.233093 
z"/>
<path fill="#FA4D04" opacity="1.000000" stroke="none" 
	d="
M339.911255,166.242157 
	C338.410675,170.046661 336.561371,173.896469 334.434082,177.955521 
	C333.736664,173.194412 335.658783,169.289902 339.911255,166.242157 
z"/>
<path fill="#FA4D04" opacity="1.000000" stroke="none" 
	d="
M405.801422,215.852936 
	C403.785919,212.463242 401.825165,208.664841 399.826050,204.510620 
	C404.680786,206.375061 405.109985,210.994843 405.801422,215.852936 
z"/>
<path fill="#FA4D04" opacity="1.000000" stroke="none" 
	d="
M433.832275,272.816162 
	C432.483673,270.764465 431.180511,268.305786 429.845001,265.495483 
	C434.001404,265.980103 433.538544,269.419006 433.832275,272.816162 
z"/>
<path fill="#FA4D04" opacity="1.000000" stroke="none" 
	d="
M243.903519,355.249939 
	C243.081543,357.721527 241.902573,360.241486 240.449005,362.970337 
	C239.786911,359.905487 240.151123,356.953430 243.903519,355.249939 
z"/>
<path fill="#FA4D04" opacity="1.000000" stroke="none" 
	d="
M277.932190,288.265381 
	C277.109497,290.744537 275.929535,293.266479 274.473694,295.996948 
	C275.323547,293.573059 276.449249,290.940613 277.932190,288.265381 
z"/>
<path fill="#FA4D04" opacity="1.000000" stroke="none" 
	d="
M463.835938,333.833313 
	C463.143646,333.080017 462.493134,331.945862 461.814789,330.480164 
	C462.483856,331.249908 463.180786,332.351196 463.835938,333.833313 
z"/>
<path fill="#FA4D04" opacity="1.000000" stroke="none" 
	d="
M341.931396,162.286438 
	C341.778870,163.422928 341.265930,164.629440 340.488708,166.033722 
	C340.673248,164.939819 341.122101,163.648148 341.931396,162.286438 
z"/>
<path fill="#FA4D04" opacity="1.000000" stroke="none" 
	d="
M465.816223,337.853333 
	C465.119934,337.102844 464.470551,335.969238 463.789062,334.505310 
	C464.459015,335.273407 465.161072,336.371826 465.816223,337.853333 
z"/>
<path fill="#FA4D04" opacity="1.000000" stroke="none" 
	d="
M435.806152,276.865906 
	C435.105896,276.114624 434.455322,274.978882 433.775238,273.512238 
	C434.449066,274.281342 435.152435,275.381409 435.806152,276.865906 
z"/>
<path fill="#FA4D04" opacity="1.000000" stroke="none" 
	d="
M271.861450,300.242340 
	C271.706421,301.365662 271.200500,302.573883 270.426941,303.974365 
	C270.609711,302.886841 271.060120,301.607025 271.861450,300.242340 
z"/>
<path fill="#FA4D04" opacity="1.000000" stroke="none" 
	d="
M273.879028,296.252289 
	C273.727966,297.380951 273.223511,298.591644 272.451050,299.994751 
	C272.630524,298.902893 273.078064,297.618591 273.879028,296.252289 
z"/>
<path fill="#FA4D04" opacity="1.000000" stroke="none" 
	d="
M437.795654,280.877441 
	C437.089020,280.131622 436.434601,278.999481 435.746704,277.537170 
	C436.424805,278.301666 437.136353,279.396393 437.795654,280.877441 
z"/>
<path fill="#FA4D04" opacity="1.000000" stroke="none" 
	d="
M514.518311,440.948029 
	C514.605225,442.322723 514.470947,443.855316 513.809204,445.109650 
	C500.227539,470.853333 486.588043,496.566498 472.946014,522.278320 
	C472.495178,523.128052 471.897125,523.899780 471.092438,525.127930 
	C470.182648,523.993958 469.394684,523.223938 468.854614,522.307861 
	C453.565002,496.372498 438.297180,470.424286 423.045959,444.466339 
	C422.550751,443.623413 422.266632,442.656433 421.922791,441.379944 
	C452.658203,441.000519 483.354889,440.988434 514.518311,440.948029 
z"/>
</svg>